<?xml version="1.0" standalone="no"?>
<!DOCTYPE svg PUBLIC "-//W3C//DTD SVG 20010904//EN"
 "http://www.w3.org/TR/2001/REC-SVG-20010904/DTD/svg10.dtd">
<svg version="1.0" xmlns="http://www.w3.org/2000/svg"
 width="1024.000000pt" height="768.000000pt" viewBox="0 0 1024.000000 768.000000"
 preserveAspectRatio="xMidYMid meet">

<g transform="translate(0.000000,768.000000) scale(0.100000,-0.100000)"
fill="#000000" stroke="none">
<path d="M2320 7560 c0 -108 2 -120 18 -120 21 0 62 -42 62 -64 0 -13 13 -16
80 -16 70 0 80 -2 80 -18 0 -10 9 -25 20 -35 15 -13 20 -29 20 -67 0 -38 -5
-54 -20 -67 -11 -10 -20 -25 -20 -35 0 -23 75 -98 98 -98 21 0 62 -42 62 -64
0 -9 8 -16 20 -16 18 0 20 -7 20 -84 0 -101 10 -116 76 -116 32 0 44 -4 44
-15 0 -13 12 -19 32 -16 4 0 9 -8 13 -18 3 -10 17 -23 30 -29 24 -11 35 -42
15 -42 -5 0 -10 -8 -10 -18 0 -10 -10 -26 -22 -37 l-23 -20 23 -3 c13 -2 22
-10 22 -20 0 -21 42 -62 63 -62 9 0 18 8 20 18 4 16 5 16 6 0 0 -10 4 -18 7
-18 4 0 13 8 20 18 10 14 15 15 26 4 11 -11 10 -13 -2 -10 -19 4 -14 -34 6
-45 8 -4 14 -16 15 -25 0 -14 2 -14 8 2 4 11 10 15 14 10 6 -10 4 -36 -7 -84
-5 -23 -5 -23 6 3 10 24 28 37 28 21 0 -11 -23 -49 -34 -56 -7 -5 1 -18 22
-36 35 -30 40 -42 17 -42 -23 0 -6 -29 21 -36 24 -6 33 -29 14 -36 -6 -2 -6
-8 0 -18 8 -13 10 -12 10 3 0 22 16 22 24 0 4 -9 1 -20 -6 -24 -7 -4 -9 -11
-5 -16 5 -4 12 -1 17 7 7 11 11 11 24 1 22 -18 20 -9 -3 18 -11 13 -17 29 -14
37 3 9 0 14 -7 12 -7 -2 -15 3 -18 11 -3 8 0 11 7 7 6 -4 4 5 -4 21 -8 15 -26
61 -41 101 -15 39 -30 72 -33 72 -4 0 -7 8 -8 18 -1 30 -70 182 -78 174 -5 -4
-5 -1 -1 6 4 7 -1 27 -11 45 -18 30 -21 86 -3 58 5 -10 10 -9 21 1 8 8 16 14
19 14 6 0 254 125 330 167 30 16 65 35 77 42 13 7 20 15 16 19 -4 4 1 4 11 0
13 -5 17 -4 12 4 -4 7 -2 10 7 6 8 -3 21 6 31 21 14 22 15 26 2 31 -8 3 -21 3
-28 -1 -7 -4 -5 0 5 8 25 21 21 30 -13 25 l-30 -5 0 84 c0 83 0 85 -35 117
-40 38 -42 43 -17 48 15 3 14 6 -5 23 -21 18 -23 28 -23 117 l0 98 -40 40
c-22 22 -40 36 -40 30 0 -19 -29 -10 -41 13 -7 12 -18 26 -25 30 -8 4 -14 17
-14 27 0 20 -11 20 -480 20 l-480 0 0 -120z m734 -966 c-5 -19 -4 -25 5 -20 7
5 11 -3 10 -26 -1 -26 -3 -28 -6 -9 -4 18 -7 21 -13 11 -5 -9 -7 -1 -6 21 4
44 5 49 11 49 3 0 2 -12 -1 -26z m129 -257 c3 -8 -1 -14 -8 -14 -7 0 -11 6 -8
14 3 7 6 13 8 13 2 0 5 -6 8 -13z m37 -113 c0 -8 -4 -14 -9 -14 -6 0 -9 9 -8
19 1 22 17 18 17 -5z"/>
<path d="M3823 7096 c-9 -11 -9 -18 1 -31 11 -16 13 -14 13 14 0 17 -1 31 -1
31 -1 -1 -6 -7 -13 -14z"/>
<path d="M3718 7093 c7 -3 16 -2 19 1 4 3 -2 6 -13 5 -11 0 -14 -3 -6 -6z"/>
<path d="M3720 7060 c-13 -9 -13 -10 0 -10 8 0 22 5 30 10 13 9 13 10 0 10 -8
0 -22 -5 -30 -10z"/>
<path d="M3590 7028 c0 -5 4 -7 8 -4 5 3 14 -4 22 -14 15 -21 32 -17 23 5 -3
8 -1 15 5 15 6 0 12 -6 15 -12 2 -7 8 -10 12 -5 5 4 5 10 2 13 -10 11 -87 12
-87 2z"/>
<path d="M3846 7007 c3 -10 9 -15 12 -12 3 3 0 11 -7 18 -10 9 -11 8 -5 -6z"/>
<path d="M10160 6740 l0 -100 -40 0 -40 0 0 -80 c0 -73 -2 -80 -20 -80 -17 0
-20 -7 -20 -40 0 -33 -3 -40 -20 -40 -13 0 -20 -7 -20 -20 0 -17 -7 -20 -40
-20 -33 0 -40 -3 -40 -20 0 -13 -7 -20 -20 -20 -17 0 -20 -7 -20 -40 0 -33 -3
-40 -20 -40 -13 0 -20 7 -20 20 0 17 -7 20 -40 20 -33 0 -40 -3 -40 -20 0 -17
7 -20 40 -20 l39 0 3 -62 3 -63 20 23 c11 12 27 22 37 22 10 0 36 18 58 40 22
22 40 36 40 30 0 -18 32 -10 37 9 2 10 27 29 54 42 28 12 72 44 99 70 l50 48
0 160 c0 154 -1 161 -20 161 -17 0 -20 7 -20 40 0 33 3 40 20 40 13 0 20 7 20
20 0 17 -7 20 -40 20 l-40 0 0 -100z"/>
<path d="M3937 6787 c-7 -19 6 -61 21 -71 12 -7 38 22 28 31 -4 4 -11 1 -16
-7 -8 -12 -10 -10 -10 7 0 12 5 25 10 28 6 3 10 11 10 17 0 7 -5 7 -14 -1 -11
-9 -15 -9 -18 1 -3 8 -7 6 -11 -5z"/>
<path d="M3896 6417 c3 -10 9 -15 12 -12 3 3 0 11 -7 18 -10 9 -11 8 -5 -6z"/>
<path d="M3835 6350 c-3 -5 1 -10 11 -10 12 0 15 -6 12 -25 -3 -13 -1 -22 3
-19 14 8 10 40 -5 53 -10 8 -16 9 -21 1z"/>
<path d="M3747 6243 c-31 -20 -55 -38 -53 -41 6 -5 66 30 66 39 0 4 11 10 25
13 14 4 25 11 25 16 0 14 2 14 -63 -27z"/>
<path d="M4020 6276 c0 -2 7 -7 16 -10 8 -3 12 -2 9 4 -6 10 -25 14 -25 6z"/>
<path d="M3816 6254 c-11 -8 -16 -14 -10 -14 13 0 39 18 34 24 -3 2 -14 -2
-24 -10z"/>
<path d="M4007 6245 c3 -8 9 -12 14 -9 12 7 11 11 -5 17 -10 4 -13 1 -9 -8z"/>
<path d="M4145 6250 c3 -5 8 -10 11 -10 2 0 4 5 4 10 0 6 -5 10 -11 10 -5 0
-7 -4 -4 -10z"/>
<path d="M3898 6213 c-26 -4 -61 -33 -40 -33 6 0 14 5 17 10 3 6 16 10 28 9
l22 0 -22 -11 c-13 -6 -23 -15 -23 -20 0 -5 11 -1 25 8 14 9 23 20 20 24 -3 5
3 11 12 13 22 6 -1 6 -39 0z"/>
<path d="M3662 6201 c-11 -7 -11 -9 0 -14 9 -3 15 1 15 9 0 8 -1 14 -1 14 -1
0 -7 -4 -14 -9z"/>
<path d="M3815 6190 c-3 -5 -1 -10 4 -10 6 0 11 5 11 10 0 6 -2 10 -4 10 -3 0
-8 -4 -11 -10z"/>
<path d="M3620 6175 c-7 -9 -15 -13 -17 -11 -3 2 -31 -11 -63 -30 -32 -19 -63
-34 -69 -34 -5 0 -12 -4 -15 -9 -4 -5 4 -7 16 -4 19 4 21 3 8 -7 -13 -10 -13
-11 3 -6 20 6 49 -3 42 -14 -2 -4 8 -5 23 -3 26 3 26 3 4 -7 -13 -5 -26 -19
-29 -30 -3 -11 -10 -17 -16 -13 -6 4 -7 1 -2 -7 6 -9 1 -10 -16 -5 -16 4 -20
3 -11 -3 11 -7 10 -10 -3 -16 -9 -3 -20 -4 -24 -2 -4 3 -7 -8 -7 -24 0 -16 3
-27 7 -24 5 2 5 12 2 21 -5 13 -2 15 11 10 11 -5 15 -3 10 5 -5 8 -2 9 10 5
11 -5 15 -3 10 5 -5 8 -2 9 10 5 10 -4 15 -3 11 3 -3 6 -1 10 4 10 6 0 11 8
11 18 0 9 12 23 27 30 33 15 46 15 37 1 -5 -8 -2 -9 11 -1 25 13 28 41 5 39
-10 -1 -16 -5 -14 -9 7 -10 -58 2 -71 14 -5 5 5 6 25 2 28 -4 32 -3 20 6 -12
10 -11 11 7 7 31 -7 48 16 27 34 -15 12 -16 11 -10 -11 5 -17 4 -21 -2 -11 -9
12 -16 11 -51 -3 -52 -20 -66 -20 -26 0 17 9 41 23 55 32 14 9 27 17 30 17 14
1 44 24 39 29 -3 4 -12 0 -19 -9z"/>
<path d="M3738 6158 c6 -6 18 -8 28 -6 14 3 12 5 -9 10 -19 3 -25 2 -19 -4z"/>
<path d="M3820 6161 c0 -6 9 -9 19 -8 11 0 17 5 15 9 -7 11 -34 10 -34 -1z"/>
<path d="M3790 6149 c0 -5 5 -7 10 -4 6 3 10 8 10 11 0 2 -4 4 -10 4 -5 0 -10
-5 -10 -11z"/>
<path d="M4246 6147 c3 -10 9 -15 12 -12 3 3 0 11 -7 18 -10 9 -11 8 -5 -6z"/>
<path d="M9600 6149 c0 -5 5 -7 10 -4 6 3 10 8 10 11 0 2 -4 4 -10 4 -5 0 -10
-5 -10 -11z"/>
<path d="M3630 6140 c0 -5 5 -10 11 -10 5 0 7 5 4 10 -3 6 -8 10 -11 10 -2 0
-4 -4 -4 -10z"/>
<path d="M3715 6139 c18 -8 17 -9 -6 -6 -22 3 -25 0 -21 -15 3 -11 8 -15 11
-10 3 5 17 13 30 17 18 5 20 9 10 16 -8 5 -21 8 -29 8 -10 0 -9 -3 5 -10z"/>
<path d="M3349 6133 c-1 -5 -1 -11 0 -15 0 -4 -7 -7 -17 -7 -33 -1 -82 -13
-82 -21 0 -5 18 -6 40 -4 23 2 39 0 35 -5 -3 -5 2 -17 11 -26 13 -13 19 -14
25 -4 9 15 0 41 -12 33 -5 -3 -9 0 -9 5 0 14 17 14 25 0 4 -6 13 -8 21 -5 7 3
16 1 19 -5 4 -5 -1 -12 -9 -15 -9 -3 -16 -10 -16 -15 0 -12 67 -11 75 1 3 6
-3 10 -14 10 -12 0 -21 6 -21 13 0 7 -13 25 -28 40 -29 27 -41 33 -43 20z m27
-17 c15 -16 18 -26 6 -26 -4 0 -13 9 -20 20 -14 23 -7 26 14 6z"/>
<path d="M3640 6088 c0 -17 3 -19 9 -9 5 7 15 17 22 22 10 6 8 9 -8 9 -17 0
-23 -6 -23 -22z"/>
<path d="M3711 6077 c-13 -21 -12 -21 5 -5 10 10 16 20 13 22 -3 3 -11 -5 -18
-17z"/>
<path d="M9665 6090 c-3 -5 -1 -10 4 -10 6 0 11 5 11 10 0 6 -2 10 -4 10 -3 0
-8 -4 -11 -10z"/>
<path d="M3676 6053 c-6 -14 -5 -15 5 -6 7 7 10 15 7 18 -3 3 -9 -2 -12 -12z"/>
<path d="M3639 6033 c-13 -16 -12 -17 4 -4 9 7 17 15 17 17 0 8 -8 3 -21 -13z"/>
<path d="M3550 6020 c-8 -5 -11 -12 -7 -16 4 -4 15 0 24 9 18 18 8 23 -17 7z"/>
<path d="M9665 5990 c3 -5 8 -10 11 -10 2 0 4 5 4 10 0 6 -5 10 -11 10 -5 0
-7 -4 -4 -10z"/>
<path d="M3517 5943 c-2 -4 5 -17 16 -28 l20 -20 -13 25 c-16 32 -17 33 -23
23z"/>
<path d="M9600 5930 c0 -5 5 -10 11 -10 5 0 7 5 4 10 -3 6 -8 10 -11 10 -2 0
-4 -4 -4 -10z"/>
<path d="M3357 5901 c-8 -10 -8 -13 0 -8 6 4 14 1 16 -5 4 -10 6 -10 6 0 1 7
6 10 11 7 6 -3 10 -1 10 5 0 6 6 8 13 4 6 -4 9 -3 4 1 -13 15 -47 12 -60 -4z"/>
<path d="M3930 5856 c0 -2 8 -10 18 -17 15 -13 16 -12 3 4 -13 16 -21 21 -21
13z"/>
<path d="M4904 5836 c-3 -8 -17 -17 -32 -21 -20 -5 -23 -8 -12 -15 8 -5 18 -6
24 -3 5 4 7 -3 3 -16 -4 -19 -3 -20 9 -10 8 7 13 18 10 26 -7 19 4 16 21 -4
13 -16 13 -16 7 7 -4 14 -11 27 -15 28 -5 2 -7 8 -3 13 3 5 3 9 -1 9 -3 0 -8
-6 -11 -14z"/>
<path d="M4835 5791 c3 -5 -8 -12 -25 -16 -32 -7 -33 -9 -20 -40 8 -20 9 -20
9 1 1 13 13 26 33 35 26 13 29 17 14 22 -9 4 -15 3 -11 -2z"/>
<path d="M3742 5751 c-11 -7 -11 -9 0 -14 9 -3 15 1 15 9 0 8 -1 14 -1 14 -1
0 -7 -4 -14 -9z"/>
<path d="M10199 5743 c-8 -9 -27 -23 -44 -30 -61 -30 -75 -38 -75 -45 0 -4
-18 -17 -40 -28 -22 -11 -40 -25 -40 -30 0 -6 -5 -10 -12 -10 -6 0 -18 -7 -27
-15 -27 -26 -91 -65 -106 -65 -8 0 -15 -6 -15 -12 -1 -15 -74 -68 -94 -68 -7
0 -21 -9 -31 -20 -10 -11 -27 -23 -39 -26 -11 -4 -25 -12 -31 -19 -16 -20
-234 -175 -245 -175 -7 0 -18 -6 -25 -12 -8 -7 -50 -38 -94 -68 -44 -30 -80
-61 -81 -67 0 -7 -6 -13 -14 -13 -18 0 -101 -46 -116 -65 -7 -8 -21 -15 -31
-15 -11 0 -19 -7 -19 -15 0 -8 -13 -21 -30 -30 -16 -9 -30 -20 -30 -25 0 -6
-6 -10 -13 -10 -7 0 -18 -9 -25 -20 -7 -11 -18 -20 -26 -20 -7 0 -25 -9 -40
-21 -14 -11 -41 -21 -58 -22 -17 -1 -33 -8 -34 -15 -1 -7 0 -8 3 -2 5 11 33
14 33 4 0 -3 -10 -14 -22 -25 -13 -10 -18 -18 -12 -19 6 0 17 7 24 15 16 20
21 19 50 -8 14 -12 39 -31 55 -41 60 -38 195 -140 195 -148 0 -5 -46 -42 -102
-83 -79 -59 -104 -73 -115 -64 -11 9 -12 8 -7 -4 4 -11 -8 -26 -41 -49 -26
-18 -59 -43 -74 -55 -14 -13 -30 -23 -34 -23 -5 0 -14 -6 -22 -12 -7 -7 -23
-21 -36 -30 -13 -9 -64 -46 -114 -82 -49 -36 -93 -66 -99 -66 -5 0 -14 -6 -20
-14 -14 -18 -316 -236 -327 -236 -4 0 -19 -10 -32 -22 -55 -52 -177 -129 -195
-124 -15 5 -22 -6 -41 -63 l-24 -68 21 -159 c12 -87 22 -164 22 -170 0 -6 -46
-44 -102 -84 -56 -40 -107 -77 -113 -82 -5 -5 -30 -23 -55 -42 -25 -18 -97
-71 -160 -117 -63 -47 -140 -103 -170 -124 -30 -22 -57 -42 -60 -46 -3 -3 -36
-28 -75 -54 -38 -27 -76 -55 -84 -63 -19 -19 -61 -45 -64 -41 -2 2 -16 60 -31
129 -61 275 -98 436 -108 463 -17 44 -21 23 -7 -32 14 -56 9 -71 -18 -50 -17
13 -17 13 0 -13 21 -34 16 -46 -34 -81 l-40 -29 32 -36 c18 -21 54 -59 81 -85
26 -26 48 -52 48 -57 0 -16 -55 -70 -72 -70 -10 0 -36 -18 -57 -39 -37 -37
-40 -38 -43 -18 l-3 22 -20 -22 c-11 -13 -27 -23 -37 -23 -10 0 -36 -18 -57
-39 -37 -37 -40 -38 -43 -18 l-3 22 -20 -22 c-16 -19 -30 -23 -77 -23 -49 0
-58 -3 -58 -17 0 -22 -42 -63 -64 -63 -9 0 -24 -4 -34 -9 -31 -16 -106 -33
-164 -38 -41 -3 -58 -9 -58 -19 0 -10 -12 -14 -40 -14 -27 0 -40 -4 -40 -14 0
-10 -31 -15 -129 -20 -120 -6 -174 0 -191 22 -7 9 -40 30 -66 41 -11 5 -33 25
-49 45 -16 20 -34 36 -42 36 -7 0 -16 12 -19 26 -4 16 -11 23 -21 20 -8 -3
-12 -2 -9 3 6 9 -33 65 -41 57 -4 -4 60 -201 126 -386 17 -46 28 -87 25 -92
-3 -4 0 -8 5 -8 27 0 5 -23 -64 -70 -41 -28 -75 -48 -75 -44 0 3 -8 -2 -17
-13 -10 -10 -15 -14 -11 -8 14 22 -5 24 -32 5 -16 -11 -33 -20 -39 -20 -17 0
-13 17 5 24 8 3 12 11 8 17 -5 9 -11 7 -19 -4 -7 -9 -15 -14 -18 -10 -8 7 -37
-15 -37 -28 0 -5 5 -9 11 -9 5 0 8 4 5 9 -3 5 0 11 7 14 8 3 14 -1 14 -9 0 -7
-9 -16 -19 -20 -10 -3 -15 -10 -12 -17 4 -7 3 -8 -2 -4 -5 5 -9 13 -9 18 0 5
-4 8 -10 7 -5 -2 -9 -7 -7 -11 1 -5 -2 -6 -8 -2 -13 8 -42 -14 -35 -25 3 -5 1
-11 -5 -15 -5 -3 -10 -1 -10 6 0 8 -4 8 -15 -1 -12 -10 -13 -16 -3 -29 12 -14
11 -14 -4 -3 -15 12 -32 4 -138 -69 -66 -45 -120 -86 -120 -90 0 -5 -3 -8 -8
-7 -7 2 -48 -24 -164 -110 -76 -56 -78 -56 -78 -44 0 8 470 347 704 508 l74
51 -54 144 c-57 154 -95 252 -100 257 -1 2 -68 -41 -147 -96 -110 -75 -148
-97 -157 -88 -9 8 -11 7 -8 -6 2 -11 -17 -31 -55 -57 -32 -23 -55 -36 -52 -29
4 7 -3 3 -14 -10 -18 -21 -20 -21 -30 -5 -5 10 -13 14 -17 10 -5 -5 -2 -12 6
-17 13 -8 13 -11 -1 -26 -13 -12 -18 -13 -24 -3 -5 7 -4 10 3 5 6 -3 13 -2 16
3 10 15 -22 21 -34 5 -7 -8 -19 -14 -26 -14 -8 0 -14 -4 -14 -8 0 -9 -59 -36
-78 -35 -10 1 -10 -2 -1 -13 13 -15 34 -20 25 -5 -4 5 4 7 16 5 13 -2 17 -2
10 2 -13 6 -7 24 8 24 14 0 4 -34 -11 -38 -8 -3 -22 -12 -32 -20 -14 -12 -20
-13 -30 -3 -9 10 -8 11 6 6 23 -9 22 7 -2 22 -15 10 -20 9 -25 -2 -3 -8 -3
-23 0 -32 5 -15 4 -15 -4 -3 -9 12 -15 12 -35 1 -14 -7 -30 -10 -36 -7 -6 4
-11 1 -11 -7 0 -13 -33 -31 -53 -28 -4 1 -7 -6 -7 -14 0 -8 -6 -15 -14 -15 -8
0 -18 -5 -22 -12 -5 -8 -2 -9 12 -4 10 4 15 3 10 -1 -4 -4 -26 -8 -49 -9 -35
0 -42 -3 -41 -20 0 -12 -5 -21 -12 -21 -7 0 -10 5 -7 11 4 6 0 5 -8 -1 -12
-10 -18 -10 -27 -1 -7 7 -12 15 -12 19 0 9 170 129 683 482 62 43 63 45 47
142 -4 28 -8 40 -9 29 -1 -18 -17 -33 -41 -38 -3 -1 -11 -5 -18 -10 -8 -4 -67
-19 -133 -32 -65 -12 -123 -25 -128 -29 -6 -3 -31 -7 -58 -10 -154 -14 -263
-29 -263 -36 0 -5 -198 -9 -440 -9 -384 0 -440 2 -440 15 0 11 -11 15 -40 15
-29 0 -40 -4 -40 -15 0 -12 -13 -15 -64 -14 -59 1 -62 3 -47 18 14 15 17 15
22 1 4 -8 6 5 4 30 -1 25 3 52 9 60 8 13 8 13 -4 2 -8 -7 -16 -17 -16 -23 -1
-5 -2 -14 -3 -20 0 -5 -5 -8 -10 -5 -10 7 -137 -133 -133 -146 1 -4 -4 -7 -10
-6 -7 2 -12 -5 -12 -14 1 -10 -2 -16 -6 -13 -5 3 -20 -10 -35 -27 -15 -18 -51
-60 -80 -93 -29 -33 -98 -114 -155 -180 l-102 -120 38 -8 c21 -4 45 -5 52 -2
8 3 20 1 27 -5 11 -9 12 -7 8 9 -3 13 3 25 22 37 27 17 28 17 47 -7 l20 -24
-15 26 c-16 27 -16 27 26 55 23 16 48 35 55 42 7 6 20 12 27 12 15 0 45 -37
45 -57 0 -13 -120 -89 -133 -85 -5 1 -6 -2 -2 -8 3 -5 1 -10 -6 -10 -7 0 -9
-3 -5 -7 9 -10 46 -11 40 -2 -7 12 44 42 60 36 9 -4 13 -1 10 6 -5 15 56 53
65 40 85 -126 91 -132 150 -143 31 -6 64 -12 74 -14 21 -5 22 4 2 30 -21 28
-19 38 14 57 l28 17 37 -55 c39 -59 56 -74 28 -26 -16 28 -16 30 8 50 14 11
27 20 30 20 3 1 15 -14 27 -31 l22 -32 -29 -20 c-16 -12 -30 -24 -30 -27 0 -4
30 -12 68 -19 249 -44 486 -90 491 -95 7 -7 -23 -3 -338 51 -190 32 -258 41
-273 33 -15 -8 -23 -7 -34 8 -7 10 -14 13 -14 8 0 -6 5 -16 11 -22 7 -7 3 -17
-17 -32 -15 -11 -30 -21 -34 -21 -4 0 -15 16 -26 35 -16 31 -17 37 -4 45 14 9
10 10 -63 25 -20 4 -24 10 38 -75 l29 -42 -24 -19 c-14 -10 -49 -35 -79 -56
l-54 -37 -23 29 c-13 17 -24 25 -24 19 0 -6 7 -17 15 -24 24 -20 18 -37 -21
-61 -30 -18 -38 -19 -45 -8 -5 8 -9 16 -9 19 -1 3 -17 23 -37 45 l-35 40 40
-59 c23 -33 39 -63 37 -67 -3 -4 -21 -16 -40 -28 l-35 -20 -15 29 c-9 17 -20
30 -26 30 -6 0 -1 -16 11 -35 l21 -34 -227 -151 -227 -151 -23 28 c-27 32 -32
24 -8 -13 9 -13 15 -26 13 -28 -21 -15 -68 -46 -71 -46 -3 0 -22 25 -43 55
-21 31 -40 53 -43 50 -3 -3 12 -30 33 -60 21 -31 36 -57 34 -59 -23 -17 -68
-46 -73 -46 -3 0 -13 15 -22 33 -10 17 -19 27 -21 20 -2 -6 2 -24 11 -40 14
-28 14 -29 -24 -51 -32 -18 -39 -19 -44 -7 -3 9 -5 18 -5 21 0 4 -4 10 -9 13
-13 8 -152 236 -152 249 0 5 12 18 27 27 25 17 27 17 40 -1 7 -10 13 -21 13
-26 0 -4 5 -8 11 -8 5 0 3 10 -5 22 -22 31 -20 41 13 61 29 17 29 17 50 -16
11 -17 21 -27 21 -22 0 6 -7 21 -16 33 -16 23 -14 27 27 60 14 11 20 8 38 -20
11 -18 21 -28 21 -23 0 6 -8 21 -17 34 -16 23 -15 25 13 48 l29 23 24 -27 24
-28 -18 29 c-18 30 -18 31 29 58 16 8 23 6 39 -13 l19 -24 -17 29 c-18 30 -18
31 29 58 16 8 23 6 39 -13 l19 -24 -16 27 c-15 26 -15 27 15 49 l32 22 19 -24
20 -24 -16 28 c-16 27 -16 27 16 46 17 11 35 18 40 15 4 -3 8 -1 8 4 0 5 12
18 27 27 25 17 27 17 45 -6 18 -22 18 -22 9 -2 -16 32 -14 39 16 58 25 17 27
17 46 -6 l19 -24 -15 27 c-16 25 -15 27 8 42 13 9 31 16 40 16 9 0 14 4 11 8
-9 15 53 45 68 33 10 -8 12 -5 12 12 -1 36 -16 37 -60 5 -38 -27 -41 -28 -54
-11 -7 10 -15 28 -18 39 -4 16 -16 23 -45 28 -36 6 -44 13 -96 91 -31 47 -59
85 -64 85 -4 0 -60 -34 -125 -75 -66 -43 -120 -71 -124 -66 -3 6 -46 -16 -99
-50 -51 -33 -99 -58 -106 -56 -6 3 -36 41 -65 84 -30 43 -69 101 -89 128 -19
28 -82 119 -140 204 -93 138 -103 156 -87 165 10 6 112 71 227 145 169 108
207 136 198 147 -6 8 -16 11 -22 7 -6 -3 -7 -1 -3 5 11 18 -4 37 -16 21 -6
-10 -7 -7 -3 9 4 15 1 24 -9 28 -9 3 -13 10 -11 15 3 4 -3 17 -15 29 -11 11
-20 25 -20 30 0 6 -4 10 -10 10 -5 0 -10 -5 -10 -12 0 -6 -3 -8 -6 -5 -4 4 -1
13 6 22 11 13 10 14 -5 8 -14 -5 -17 -3 -12 10 4 10 2 17 -4 17 -6 0 -9 -9 -6
-20 3 -11 2 -22 -2 -24 -11 -7 -11 37 1 51 7 9 7 13 -1 13 -6 0 -11 7 -11 16
0 12 -7 15 -24 12 -17 -4 -23 -1 -19 9 3 7 10 10 15 6 6 -3 3 8 -8 25 -10 17
-20 29 -22 27 -3 -3 1 -11 8 -20 7 -9 10 -19 6 -22 -4 -4 -11 -1 -16 7 -7 11
-10 8 -15 -13 -7 -27 -9 -28 -75 -25 -38 2 -63 6 -57 10 8 5 7 8 -3 8 -11 1
-10 4 4 15 11 8 25 15 30 15 6 0 4 -4 -4 -10 -8 -5 -11 -12 -7 -16 10 -11 18
1 21 30 3 25 2 26 -18 13 -11 -8 -32 -20 -45 -27 -19 -10 -21 -14 -10 -22 11
-7 9 -8 -5 -4 -11 4 -30 -1 -45 -11 -39 -26 -84 -51 -104 -59 -10 -4 -16 -13
-13 -20 3 -8 0 -11 -9 -8 -8 3 -27 -3 -42 -14 -15 -11 -48 -30 -73 -42 -25
-12 -47 -26 -50 -30 -3 -4 -20 -15 -38 -24 -19 -10 -30 -21 -26 -28 4 -7 3 -8
-4 -4 -7 4 -38 -9 -70 -28 -31 -20 -62 -36 -68 -36 -5 0 -32 37 -59 83 -26 45
-59 98 -72 118 -13 19 -23 40 -23 47 0 7 -3 12 -8 12 -14 0 -37 63 -24 68 6 2
26 13 44 26 55 37 62 40 54 28 -16 -26 8 -10 45 30 21 23 39 39 39 35 0 -15
82 37 96 62 8 14 13 19 10 10 -6 -22 24 -15 53 12 11 10 29 19 40 19 11 0 25
9 31 19 13 25 13 31 -2 31 -6 0 -8 -3 -5 -7 11 -11 -14 -33 -38 -33 -13 0 -25
-3 -28 -7 -2 -5 -2 -2 0 5 1 8 3 20 3 27 0 7 8 16 18 18 16 4 16 5 0 6 -10 0
-22 -8 -28 -19 -8 -14 -21 -20 -45 -20 -28 0 -35 4 -35 20 0 19 -7 20 -120 20
-113 0 -120 1 -120 20 0 17 -7 20 -40 20 -33 0 -40 3 -40 20 0 17 -7 20 -40
20 -32 0 -40 4 -40 19 0 15 -11 19 -61 25 -34 3 -88 6 -120 6 -46 0 -59 3 -59
15 0 12 -16 15 -80 15 l-80 0 0 40 0 40 40 0 c29 0 40 4 40 15 0 11 -11 15
-40 15 -29 0 -40 -4 -40 -15 0 -11 -11 -15 -40 -15 -33 0 -40 3 -40 20 0 17
-7 20 -40 20 -33 0 -40 -3 -40 -20 0 -17 -7 -13 -40 20 -33 33 -47 40 -80 40
l-40 0 0 60 0 60 -80 0 c-73 0 -80 2 -80 20 0 17 -7 20 -40 20 l-40 0 0 -1880
0 -1880 5120 0 5120 0 0 2880 c0 3042 2 2915 -41 2863z m-1359 -963 c0 -5 -2
-10 -4 -10 -3 0 -8 5 -11 10 -3 6 -1 10 4 10 6 0 11 -4 11 -10z m-7475 -1600
c3 -5 -4 -6 -15 -3 -11 3 -22 9 -25 13 -3 5 4 6 15 3 11 -3 22 -9 25 -13z
m-40 -20 c3 -5 -1 -10 -10 -10 -9 0 -13 5 -10 10 3 6 8 10 10 10 2 0 7 -4 10
-10z m-112 -57 c-3 -7 -6 -13 -8 -13 -2 0 -5 6 -8 13 -3 8 1 14 8 14 7 0 11
-6 8 -14z m18 -16 c-10 -9 -11 -8 -5 6 3 10 9 15 12 12 3 -3 0 -11 -7 -18z
m7133 -99 c39 -35 82 -72 96 -84 14 -12 45 -40 70 -62 l45 -41 -41 -38 c-42
-40 -71 -63 -142 -114 l-43 -30 -52 43 c-29 24 -63 53 -77 65 -14 13 -58 51
-97 85 -40 34 -73 66 -73 70 0 4 17 19 38 32 20 14 69 50 107 80 39 30 76 55
84 55 8 1 46 -27 85 -61z m-834 -169 c-33 -91 -69 -171 -80 -180 -10 -9 -16
-20 -12 -24 4 -5 2 -5 -5 -1 -7 4 -302 -139 -679 -329 -367 -184 -669 -337
-671 -339 -2 -1 55 -68 127 -147 71 -79 130 -147 130 -151 0 -4 -27 -28 -60
-53 l-59 -46 -38 43 c-21 24 -58 63 -82 88 -24 25 -9 5 33 -43 42 -48 74 -91
72 -96 -3 -4 -32 -26 -65 -49 -48 -34 -61 -40 -68 -28 -7 13 -124 145 -183
207 -14 14 -35 40 -47 56 l-22 31 25 23 24 23 33 -30 c26 -23 28 -24 9 -3 -12
14 -22 29 -22 35 1 15 49 46 62 38 6 -4 8 -3 4 4 -3 6 7 20 22 31 l29 20 96
-107 c129 -144 177 -195 177 -188 0 4 -50 61 -112 129 -164 179 -153 164 -138
182 7 8 -51 -17 -129 -57 -91 -45 -140 -76 -139 -85 2 -8 -10 -22 -25 -31 -27
-16 -29 -16 -43 2 -15 21 -19 10 -5 -13 7 -10 2 -20 -15 -34 -25 -19 -25 -19
-50 4 -30 28 -30 36 -1 59 17 14 25 16 36 7 12 -10 14 -9 8 5 -9 24 38 56 61
41 12 -7 50 8 163 66 81 42 145 80 141 85 -3 5 0 6 6 2 15 -9 365 167 355 179
-4 4 -3 5 4 2 15 -9 166 66 156 78 -4 4 -3 5 3 2 12 -7 326 148 317 157 -4 3
4 6 16 6 13 0 35 8 49 18 15 10 43 25 62 32 19 8 37 16 40 19 3 4 89 48 193
99 103 51 187 96 187 100 0 4 -24 21 -52 39 -51 30 -110 83 -93 83 4 0 43 -23
87 -50 43 -28 82 -49 87 -46 4 3 18 34 30 68 60 167 102 261 108 242 2 -6 -23
-85 -57 -175z m-5705 131 c3 -5 1 -10 -4 -10 -6 0 -11 5 -11 10 0 6 2 10 4 10
3 0 8 -4 11 -10z m6149 -29 l27 -28 -29 -24 c-15 -13 -41 -33 -56 -44 -16 -11
-41 -30 -56 -42 -15 -13 -30 -23 -33 -23 -10 0 -57 47 -57 56 1 8 159 132 171
133 3 1 18 -12 33 -28z m116 -102 c44 -40 53 -53 44 -66 -23 -36 -42 -39 -71
-11 l-26 27 -29 -21 -29 -20 23 -25 c24 -26 19 -46 -16 -67 -13 -9 -21 -7 -35
9 -9 11 -26 25 -36 31 -10 6 -28 23 -39 38 l-21 28 23 17 c12 9 51 37 85 63
34 26 64 47 67 47 3 0 30 -22 60 -50z m-313 -41 c13 -12 23 -26 22 -32 0 -13
-210 -170 -232 -174 -16 -3 -57 31 -57 48 0 9 62 60 135 110 20 14 49 35 63
47 34 28 40 28 69 1z m-888 -52 c-9 -8 -10 -7 -5 7 3 10 7 24 7 30 1 7 3 4 6
-7 3 -10 -1 -23 -8 -30z m990 -37 c20 -18 76 -68 124 -112 48 -45 97 -87 107
-94 11 -8 20 -20 20 -27 0 -7 -30 -34 -67 -61 -38 -27 -79 -60 -93 -72 -14
-13 -28 -23 -32 -23 -3 0 -13 -6 -20 -13 -7 -7 -26 -23 -42 -35 l-29 -23 -36
33 -36 33 30 -33 30 -34 -37 -32 c-20 -17 -109 -87 -198 -155 l-162 -123 -32
29 -31 28 28 -31 28 -31 -38 -28 c-21 -16 -40 -32 -43 -35 -3 -4 -25 -20 -50
-37 -25 -17 -55 -41 -68 -53 -13 -12 -25 -20 -27 -19 -52 46 -285 286 -285
294 0 7 24 29 54 49 30 21 67 48 83 62 15 13 32 24 36 24 4 0 18 9 30 20 56
50 97 81 97 74 0 -5 4 -4 8 2 4 7 32 30 62 53 30 22 68 51 84 63 16 13 31 22
33 21 2 -2 12 5 22 15 37 34 74 63 120 95 25 17 55 40 66 50 11 10 43 34 70
53 28 19 70 50 95 69 25 19 49 35 54 35 4 0 25 -14 45 -31z m-962 -41 c-3 -8
-6 -5 -6 6 -1 11 2 17 5 13 3 -3 4 -12 1 -19z m1270 -14 l25 -25 22 20 c27 25
44 26 68 4 27 -24 22 -39 -19 -70 -21 -15 -56 -42 -77 -60 -48 -40 -56 -40
-86 -6 l-23 27 26 21 25 22 -26 26 c-25 26 -25 27 -7 47 24 27 41 25 72 -6z
m-680 -56 c23 -21 31 -48 15 -48 -5 0 -17 -8 -28 -18 -10 -10 -35 -28 -54 -42
-19 -13 -37 -27 -40 -30 -3 -3 -28 -22 -56 -43 l-51 -36 -26 27 c-34 35 -34
45 0 63 15 8 36 23 48 34 12 11 32 28 46 37 13 9 42 30 64 47 49 36 53 37 82
9z m-4183 -63 c-4 -8 -10 -15 -15 -15 -4 0 -6 7 -3 15 4 8 10 15 15 15 4 0 6
-7 3 -15z m-49 -80 c0 -19 -1 -35 -1 -35 -1 0 -9 12 -19 26 -9 15 -13 24 -7
20 5 -3 12 1 16 9 8 23 11 18 11 -20z m-44 -28 c-10 -9 -11 -8 -5 6 3 10 9 15
12 12 3 -3 0 -11 -7 -18z m4001 -34 c15 -15 28 -29 28 -33 0 -3 -25 -23 -56
-45 -30 -22 -67 -50 -82 -63 -15 -13 -46 -36 -69 -52 l-41 -28 -26 31 c-14 17
-26 33 -26 36 1 3 24 23 53 44 29 21 81 60 117 87 36 27 67 49 69 50 3 0 18
-12 33 -27z m-3442 -173 l101 -134 -23 -18 c-24 -18 -214 -150 -234 -161 -6
-4 -38 32 -75 84 -35 49 -81 112 -101 140 -21 28 -38 54 -38 58 0 4 13 14 28
23 23 14 31 15 41 5 10 -9 11 -8 6 4 -4 12 4 23 27 37 19 12 45 30 57 42 13
11 28 20 33 20 5 0 6 4 3 10 -3 5 0 7 8 4 8 -3 20 2 27 11 7 9 19 15 26 13 7
-2 58 -64 114 -138z m-429 8 c10 -13 18 -27 18 -33 0 -10 -172 -127 -193 -133
-6 -1 -19 12 -29 30 -18 32 -18 32 5 50 13 10 27 18 32 18 6 0 22 12 38 27 23
22 30 24 43 13 13 -11 15 -10 10 3 -4 9 3 21 17 31 30 21 36 20 59 -6z m1424
-28 c-3 -5 -10 -10 -16 -10 -5 0 -9 5 -9 10 0 6 7 10 16 10 8 0 12 -4 9 -10z
m2176 -12 c27 -34 24 -44 -28 -79 l-47 -32 -28 34 c-28 33 -28 34 -9 47 11 8
30 22 42 33 29 25 47 24 70 -3z m-3526 -70 c19 -29 35 -58 35 -64 0 -16 -50
-48 -59 -37 -34 40 -82 118 -74 120 6 2 19 10 29 18 10 8 22 15 26 15 4 0 23
-24 43 -52z m-85 -27 l21 -30 -35 -23 -34 -23 19 -24 c10 -13 19 -26 19 -30 0
-6 -62 -44 -64 -39 -1 2 -19 28 -39 58 -20 30 -37 58 -37 61 0 4 12 14 26 24
21 14 28 14 42 3 13 -11 14 -11 8 0 -9 15 20 52 40 52 7 0 22 -13 34 -29z
m1240 -6 c0 -2 -6 -5 -13 -8 -8 -3 -14 1 -14 8 0 7 6 11 14 8 7 -3 13 -6 13
-8z m685 -175 c-3 -5 -12 -10 -18 -10 -7 0 -6 4 3 10 19 12 23 12 15 0z
m-2435 -70 c0 -11 -60 -54 -60 -43 0 4 -4 4 -8 -2 -4 -5 -17 -18 -29 -29 -20
-16 -25 -17 -40 -5 -16 13 -17 12 -5 -3 12 -15 10 -19 -17 -33 -17 -8 -33 -15
-36 -15 -2 0 -17 -12 -31 -25 -35 -32 -45 -31 -66 5 -17 29 -16 30 11 49 l28
20 23 -22 22 -22 -16 26 c-16 26 -16 27 10 44 21 13 32 15 45 7 14 -9 16 -8
12 7 -3 11 5 24 23 36 27 17 27 17 47 -6 l19 -24 -16 27 c-15 26 -15 27 12 47
l27 21 23 -26 c12 -14 22 -29 22 -34z m2330 56 c0 -2 -8 -10 -17 -17 -16 -13
-17 -12 -4 4 13 16 21 21 21 13z m47 -21 c0 -8 -4 -12 -9 -9 -5 3 -6 10 -3 15
9 13 12 11 12 -6z m-33 -268 l8 -67 176 91 c97 51 185 99 195 107 17 15 20 14
42 -13 30 -38 30 -37 -2 -57 -27 -16 -29 -16 -49 10 -19 23 -24 25 -38 13 -15
-13 -15 -16 4 -36 25 -27 25 -29 -6 -50 -20 -13 -28 -14 -40 -4 -8 7 -13 18
-10 26 3 8 2 11 -3 8 -5 -3 -12 -1 -16 5 -3 6 -57 -16 -128 -51 l-122 -62 -80
13 c-103 15 -206 38 -179 39 11 1 69 -8 129 -19 60 -11 110 -18 112 -16 2 1
-1 34 -7 72 -5 38 -9 87 -9 109 l1 40 8 -45 c4 -25 11 -75 14 -113z m699 46
c10 -16 -18 -53 -38 -53 -11 0 -95 90 -103 110 -2 4 9 17 24 29 l27 21 41 -47
c22 -25 45 -52 49 -60z m-122 14 c8 -14 6 -23 -7 -38 -24 -26 -37 -24 -62 10
l-22 30 28 19 c29 22 43 17 63 -21z m-3231 -35 c0 -6 -65 -50 -182 -124 -28
-17 -28 -17 -44 14 -16 31 -16 32 6 50 23 19 50 24 50 10 0 -5 7 -17 15 -28
14 -17 14 -16 0 13 -19 41 -20 38 11 58 24 16 27 16 47 -1 12 -10 16 -12 10
-4 -19 21 -16 34 15 53 26 16 28 16 50 -9 12 -14 22 -28 22 -32z m2336 12
c-11 -7 -22 -12 -25 -9 -2 3 4 12 15 19 10 8 21 12 24 9 3 -2 -4 -11 -14 -19z
m843 -45 l51 -61 -26 -21 -27 -21 -48 55 c-27 30 -49 59 -49 65 0 9 32 39 47
43 1 1 24 -26 52 -60z m-896 6 c-22 -17 -30 -11 -13 10 7 8 17 12 22 9 5 -3 1
-12 -9 -19z m641 0 c20 -31 21 -30 -9 -49 -24 -16 -26 -16 -50 11 l-24 28 22
17 c30 24 42 22 61 -7z m-700 -39 c-10 -8 -21 -12 -24 -9 -3 2 4 11 14 19 11
7 22 12 25 9 2 -3 -4 -12 -15 -19z m857 -13 c66 -73 219 -255 219 -261 0 -4
-14 -15 -32 -25 -30 -17 -31 -17 -55 5 -13 12 -22 27 -20 32 2 6 -2 17 -9 24
-8 7 -20 23 -29 35 -15 21 -15 21 -32 3 -10 -10 -12 -15 -4 -11 9 5 21 -2 36
-21 21 -26 21 -30 6 -42 -9 -7 -11 -11 -5 -8 6 3 22 -6 34 -19 l23 -25 -23
-25 c-30 -32 -45 -32 -66 0 -14 21 -14 28 -3 42 13 16 11 16 -14 0 -16 -10
-29 -17 -30 -15 -1 2 -13 15 -25 30 l-24 26 29 16 c20 11 23 15 10 16 -9 0
-25 13 -35 28 -9 16 -23 27 -29 25 -7 -3 -24 8 -37 24 -17 18 -25 23 -25 13 0
-21 36 -63 48 -56 5 4 18 -6 29 -21 15 -22 17 -32 9 -45 -9 -14 -6 -22 13 -43
l25 -27 -24 -19 c-30 -25 -35 -24 -56 8 -12 18 -14 28 -7 31 7 2 12 9 12 15
-1 16 -46 67 -61 67 -6 0 -20 11 -31 25 -11 14 -24 25 -30 25 -6 0 1 -15 15
-33 l25 -33 -21 -17 c-27 -22 -29 -22 -58 9 -22 23 -22 26 -7 35 15 8 14 12
-9 35 -24 24 -24 26 -7 45 23 26 39 24 62 -8 11 -15 24 -23 31 -19 7 5 1 16
-20 33 l-31 26 24 18 c31 25 43 24 62 -6 9 -14 21 -25 27 -25 6 0 0 15 -15 34
l-26 34 26 17 c25 16 27 16 55 -11 24 -23 31 -26 42 -14 8 8 8 11 0 6 -6 -3
-21 6 -33 21 l-21 28 21 17 c30 24 32 24 71 -19z m-229 10 c24 -21 23 -39 -4
-57 -20 -15 -24 -14 -45 6 -28 26 -29 36 -5 54 23 18 32 17 54 -3z m-3083 -50
c10 -22 9 -28 -10 -44 -31 -26 -45 -24 -59 11 -11 27 -10 32 11 49 28 22 42
19 58 -16z m2406 18 c-3 -6 -11 -11 -17 -11 -6 0 -6 6 2 15 14 17 26 13 15 -4z
m607 -18 c24 -21 23 -32 -4 -55 -23 -19 -23 -19 -46 7 -22 26 -22 28 -6 46 21
23 32 24 56 2z m588 0 c0 -12 90 -109 90 -99 0 6 -10 20 -21 33 -18 18 -20 25
-10 37 23 28 50 29 71 4 11 -13 19 -27 19 -33 0 -12 -98 -85 -114 -85 -7 0
-24 15 -40 33 -15 17 -37 42 -48 54 -20 22 -20 23 -2 43 17 19 55 28 55 13z
m-3706 -55 c24 -33 21 -40 -35 -77 -54 -35 -53 -35 -81 14 -7 13 -7 20 -1 22
6 2 28 17 49 33 47 36 49 36 68 8z m3020 -23 c16 -25 16 -27 -6 -45 -23 -19
-23 -19 -48 6 l-25 25 24 20 c30 25 35 24 55 -6z m-67 -51 c16 -25 16 -27 -8
-45 -24 -18 -24 -18 -49 7 l-25 25 25 19 c32 25 36 25 57 -6z m752 -3 l20 -28
-24 -22 c-14 -11 -27 -21 -29 -21 -3 0 -14 14 -26 31 -21 29 -21 31 -5 50 25
26 40 24 64 -10z m-575 -12 c8 -12 12 -27 9 -35 -3 -7 5 -27 16 -43 l22 -30
-26 -17 c-25 -16 -27 -16 -51 7 l-25 24 28 22 c21 17 23 21 7 17 -12 -3 -27 2
-38 15 -18 20 -18 22 -1 41 23 26 40 25 59 -1z m-248 -34 c16 -24 16 -27 -2
-40 -27 -20 -40 -18 -59 7 -14 21 -14 24 7 40 30 23 35 23 54 -7z m176 -12
c23 -20 23 -32 1 -50 -10 -8 -13 -12 -6 -9 6 4 21 -7 32 -23 l21 -29 -26 -17
c-25 -16 -27 -16 -50 6 -23 21 -24 25 -8 36 15 11 14 14 -12 37 l-29 26 24 20
c28 24 30 24 53 3z m-244 -41 l20 -28 -28 -16 c-27 -15 -29 -15 -52 9 l-23 24
25 19 c33 25 35 25 58 -8z m475 2 c11 -14 17 -27 15 -28 -46 -35 -50 -35 -73
-8 l-22 26 21 18 c28 23 38 22 59 -8z m-297 -19 c16 -24 16 -27 -2 -40 -27
-20 -39 -18 -58 10 -15 23 -15 25 6 40 30 20 35 19 54 -10z m229 -32 c17 -25
17 -27 -6 -44 -23 -18 -25 -18 -48 6 -24 24 -24 25 -6 45 24 27 39 25 60 -7z
m-303 -10 c10 -9 18 -22 18 -30 0 -18 10 -16 36 8 l22 20 21 -30 22 -30 -26
-17 c-25 -16 -27 -16 -55 11 -24 23 -32 26 -45 15 -20 -17 -45 -6 -45 20 0 14
-4 19 -12 15 -7 -4 -2 3 12 14 30 25 29 25 52 4z m-206 -14 c18 -20 18 -21 -6
-40 -32 -24 -36 -24 -54 3 -14 20 -14 24 1 40 21 23 36 23 59 -3z m598 -6 c19
-26 19 -26 -3 -45 -30 -24 -35 -23 -56 8 -16 24 -15 26 6 45 28 24 30 24 53
-8z m131 -50 c-32 -29 -36 -28 -64 1 l-22 23 33 28 32 27 23 -28 23 -29 -25
-22z m-246 11 c16 15 19 14 39 -7 28 -29 28 -33 -3 -53 -24 -16 -27 -16 -39 2
-8 10 -12 23 -9 28 4 5 1 6 -5 2 -5 -3 -12 0 -15 6 -3 9 -10 7 -26 -7 l-23
-19 -19 24 c-24 32 -24 36 4 55 21 15 23 14 50 -16 26 -29 30 -30 46 -15z
m-343 1 c16 -24 16 -27 -2 -40 -26 -20 -40 -18 -58 6 -14 20 -13 23 7 40 29
24 34 24 53 -6z m-211 -5 c17 -19 17 -20 -6 -39 -31 -26 -35 -26 -54 2 -15 21
-14 23 6 40 27 22 32 21 54 -3z m308 -25 c17 -24 17 -25 -8 -41 -25 -16 -27
-16 -48 4 -20 21 -20 22 -2 42 23 26 36 25 58 -5z m131 -2 c19 -26 19 -26 -4
-45 -29 -23 -46 -18 -42 13 1 17 -1 20 -7 10 -7 -10 -10 -10 -16 -1 -5 8 1 20
16 31 30 23 30 23 53 -8z m278 10 c24 -21 23 -31 -4 -54 -31 -25 -43 -24 -62
5 -15 24 -14 26 11 45 31 25 32 25 55 4z m-576 -28 c16 -24 16 -27 -2 -39 -16
-12 -20 -12 -32 3 -12 14 -13 14 -7 -3 6 -20 6 -20 -15 -1 -20 18 -20 20 -3
26 10 4 14 8 9 8 -11 1 13 31 25 31 5 0 16 -11 25 -25z m-209 -12 c12 -18 11
-22 -13 -38 -27 -17 -28 -17 -47 6 -19 23 -19 24 4 42 26 21 37 19 56 -10z
m600 -10 c13 -20 12 -23 -12 -39 -31 -21 -57 -6 -35 21 12 14 7 19 -15 16 -5
-1 -1 6 10 14 23 18 34 16 52 -12z m-294 -8 c17 -24 17 -25 -8 -41 -25 -16
-27 -16 -48 4 -20 21 -20 22 -2 42 23 26 36 25 58 -5z m132 -5 c17 -19 17 -20
-6 -39 -13 -11 -28 -20 -32 -21 -13 0 -21 34 -9 38 7 2 9 8 6 13 -3 6 -11 5
-20 -2 -8 -6 -14 -8 -14 -4 0 10 32 34 46 35 6 0 19 -9 29 -20z m-286 -40 c0
-3 -11 -14 -26 -24 -14 -11 -23 -14 -19 -8 4 7 4 17 0 23 -5 8 -8 8 -14 0 -5
-9 -11 -7 -21 5 -9 12 -10 15 -1 10 7 -4 12 -2 12 8 0 8 8 20 18 25 13 8 21 5
34 -12 10 -12 18 -24 17 -27z m547 33 c7 -10 14 -21 14 -24 0 -13 -282 -211
-294 -206 -8 3 -19 1 -25 -4 -8 -6 -8 -5 -1 3 19 22 10 29 -16 12 -19 -13 -22
-19 -12 -25 9 -6 9 -9 1 -9 -19 0 -27 21 -12 31 15 9 170 130 252 196 58 47
73 51 93 26z m-773 -16 c14 -21 13 -24 -6 -40 -27 -22 -33 -21 -52 6 -15 21
-14 23 6 40 28 22 34 22 52 -6z m600 -10 c14 -22 14 -25 -4 -40 -24 -21 -33
-21 -49 -2 -10 12 -9 15 4 15 10 0 14 5 11 10 -8 13 1 40 14 40 5 0 16 -11 24
-23z m-283 -32 c0 -7 -11 -20 -24 -28 -23 -16 -25 -15 -41 10 -17 26 -17 27 5
45 21 17 24 17 41 2 11 -10 19 -23 19 -29z m127 8 c14 -20 13 -23 -15 -37 -25
-13 -32 -13 -41 -2 -9 10 -8 15 5 20 12 5 14 9 5 20 -6 7 -8 16 -4 20 12 12
35 2 50 -21z m-288 -36 c-2 -1 -14 -10 -25 -20 -21 -18 -22 -18 -20 0 0 12 -5
17 -16 15 -9 -1 -20 3 -24 9 -4 8 -3 9 4 5 7 -4 12 -2 12 5 0 6 8 17 17 24 14
11 20 9 36 -12 11 -13 18 -25 16 -26z m373 9 c16 -22 16 -25 -2 -41 -23 -21
-59 -13 -41 9 9 10 9 16 1 21 -8 5 -8 11 1 21 15 19 21 17 41 -10z m-630 -11
c10 -21 8 -28 -8 -40 -10 -8 -25 -15 -32 -15 -7 0 -11 -4 -8 -9 3 -5 -1 -12
-11 -15 -16 -7 -53 19 -53 37 0 6 8 3 18 -6 16 -14 19 -14 41 2 16 12 20 21
12 25 -6 4 -15 4 -21 1 -19 -12 -10 7 13 26 29 24 35 24 49 -6z m337 -7 c12
-19 11 -24 -9 -40 -27 -22 -52 -9 -31 16 9 11 9 15 0 18 -15 5 -3 28 14 28 7
0 18 -10 26 -22z m134 -2 c15 -23 15 -25 -9 -41 -29 -18 -48 -11 -41 16 3 11
0 19 -5 19 -6 0 -5 6 2 15 18 22 35 19 53 -9z m-300 -19 c13 -20 13 -24 -8
-39 -23 -17 -23 -17 -21 7 2 13 0 22 -4 20 -5 -3 -10 2 -13 9 -5 13 5 23 24
25 4 1 13 -9 22 -22z m390 -20 c14 -22 13 -24 -13 -39 -25 -14 -28 -14 -38 3
-9 15 -9 17 2 13 10 -4 12 2 9 20 -7 34 19 35 40 3z m-304 -46 c-29 -24 -38
-8 -13 21 11 12 13 18 7 14 -18 -10 -39 4 -22 15 9 5 21 2 33 -11 19 -19 19
-19 -5 -39z m137 34 c16 -24 16 -27 -2 -40 -27 -20 -37 -18 -31 5 3 11 1 23
-4 26 -6 3 -5 11 2 20 15 18 16 18 35 -11z m-322 -30 c-14 -10 -21 -10 -26 -2
-4 7 2 17 15 24 28 15 37 -3 11 -22z m416 -7 c18 -22 18 -23 -3 -35 -27 -15
-50 -17 -42 -3 4 6 11 8 16 5 5 -4 9 1 9 9 0 8 -5 18 -10 21 -10 6 -5 25 6 25
3 0 14 -10 24 -22z m-385 -8 c-3 -5 -13 -6 -21 -3 -12 4 -13 8 -3 14 15 9 32
2 24 -11z m216 -40 c-9 -9 -22 -14 -30 -12 -10 4 -8 8 8 14 22 8 24 35 3 31
-7 -2 -9 4 -5 13 5 14 9 13 23 -6 16 -21 16 -24 1 -40z m-120 28 l12 -23 -24
20 c-13 11 -26 21 -28 22 -2 2 3 3 12 3 9 0 22 -10 28 -22z m-213 -18 c-7 -10
-14 -17 -17 -15 -4 4 18 35 25 35 2 0 -1 -9 -8 -20z m21 -11 c-13 -8 -5 -13
14 -10 5 1 6 -3 2 -9 -5 -8 -11 -8 -20 0 -11 9 -12 16 -2 31 7 11 14 14 16 8
2 -6 -3 -15 -10 -20z m176 11 c3 -6 -1 -7 -9 -4 -18 7 -21 14 -7 14 6 0 13 -4
16 -10z m-71 -18 c2 -4 -5 -9 -17 -9 -17 -2 -19 0 -7 7 18 12 18 12 24 2z
m316 -6 c0 -2 -8 -10 -17 -17 -16 -13 -17 -12 -4 4 13 16 21 21 21 13z"/>
<path d="M5970 1815 c7 -9 15 -13 17 -11 7 7 -7 26 -19 26 -6 0 -6 -6 2 -15z"/>
<path d="M6015 1770 c10 -11 20 -20 23 -20 3 0 -3 9 -13 20 -10 11 -20 20 -23
20 -3 0 3 -9 13 -20z"/>
<path d="M5950 1721 c5 -11 15 -23 21 -27 6 -3 3 5 -6 20 -20 30 -30 35 -15 7z"/>
<path d="M6005 1657 c10 -15 20 -25 23 -22 3 3 -5 16 -17 28 l-23 22 17 -28z"/>
<path d="M6061 1594 c13 -17 26 -30 28 -27 3 2 -8 16 -24 31 l-28 27 24 -31z"/>
<path d="M7261 1944 c13 -17 26 -30 28 -27 3 2 -8 16 -24 31 l-28 27 24 -31z"/>
<path d="M7330 1880 c0 -5 5 -10 11 -10 5 0 7 5 4 10 -3 6 -8 10 -11 10 -2 0
-4 -4 -4 -10z"/>
<path d="M7245 1830 c10 -11 20 -20 23 -20 3 0 -3 9 -13 20 -10 11 -20 20 -23
20 -3 0 3 -9 13 -20z"/>
<path d="M3668 2225 c6 -11 25 -36 42 -55 l32 -35 -33 45 c-40 55 -55 72 -41
45z"/>
<path d="M3600 2176 c0 -2 8 -10 18 -17 15 -13 16 -12 3 4 -13 16 -21 21 -21
13z"/>
<path d="M3530 2136 c0 -2 8 -10 18 -17 15 -13 16 -12 3 4 -13 16 -21 21 -21
13z"/>
<path d="M3770 2086 c19 -26 39 -50 44 -54 5 -3 -6 16 -24 42 -19 26 -39 50
-44 54 -5 3 6 -16 24 -42z"/>
<path d="M3560 2096 c0 -2 8 -10 18 -17 15 -13 16 -12 3 4 -13 16 -21 21 -21
13z"/>
<path d="M3660 2096 c0 -2 8 -10 18 -17 15 -13 16 -12 3 4 -13 16 -21 21 -21
13z"/>
<path d="M3610 2033 c0 -6 8 -17 18 -24 16 -13 16 -13 2 6 -8 11 -16 22 -17
24 -2 2 -3 0 -3 -6z"/>
<path d="M3720 2016 c0 -2 8 -10 18 -17 15 -13 16 -12 3 4 -13 16 -21 21 -21
13z"/>
<path d="M3210 2126 c0 -2 8 -10 18 -17 15 -13 16 -12 3 4 -13 16 -21 21 -21
13z"/>
<path d="M5540 1450 c1 -15 33 -60 44 -60 12 0 5 15 -19 45 -15 18 -25 24 -25
15z"/>
<path d="M5620 1280 c-9 -6 -10 -10 -3 -10 6 0 15 5 18 10 8 12 4 12 -15 0z"/>
<path d="M5180 1410 c0 -5 5 -10 11 -10 5 0 7 5 4 10 -3 6 -8 10 -11 10 -2 0
-4 -4 -4 -10z"/>
<path d="M5035 1309 c-9 -14 -2 -20 14 -10 8 6 9 11 3 15 -6 3 -14 1 -17 -5z"/>
<path d="M5215 1260 c3 -5 8 -10 11 -10 2 0 4 5 4 10 0 6 -5 10 -11 10 -5 0
-7 -4 -4 -10z"/>
<path d="M4962 1254 c-14 -16 -5 -18 17 -5 7 5 9 11 5 14 -5 3 -15 -1 -22 -9z"/>
<path d="M5140 1210 c0 -5 5 -10 10 -10 6 0 10 5 10 10 0 6 -4 10 -10 10 -5 0
-10 -4 -10 -10z"/>
<path d="M5155 1150 c-3 -5 -1 -10 4 -10 6 0 11 5 11 10 0 6 -2 10 -4 10 -3 0
-8 -4 -11 -10z"/>
<path d="M4870 1179 c0 -5 5 -7 10 -4 6 3 10 8 10 11 0 2 -4 4 -10 4 -5 0 -10
-5 -10 -11z"/>
<path d="M5000 1110 c0 -5 5 -10 10 -10 6 0 10 5 10 10 0 6 -4 10 -10 10 -5 0
-10 -4 -10 -10z"/>
<path d="M4790 1135 c-9 -11 -8 -14 9 -12 22 1 28 12 12 21 -5 3 -14 -1 -21
-9z"/>
<path d="M5085 1100 c3 -5 8 -10 11 -10 2 0 4 5 4 10 0 6 -5 10 -11 10 -5 0
-7 -4 -4 -10z"/>
<path d="M5506 1094 c-9 -24 -7 -28 9 -14 17 14 20 30 6 30 -5 0 -12 -7 -15
-16z"/>
<path d="M4711 1081 c-9 -6 -10 -11 -2 -15 6 -4 11 -3 11 3 0 6 7 8 15 5 8 -4
15 -1 15 5 0 13 -20 14 -39 2z"/>
<path d="M4650 1035 c-10 -12 -10 -19 -2 -27 9 -9 12 -8 12 6 0 9 4 14 10 11
6 -3 7 1 4 9 -8 20 -9 20 -24 1z"/>
<path d="M4940 1000 c0 -5 5 -10 10 -10 6 0 10 5 10 10 0 6 -4 10 -10 10 -5 0
-10 -4 -10 -10z"/>
<path d="M4966 873 c-6 -14 -5 -15 5 -6 7 7 10 15 7 18 -3 3 -9 -2 -12 -12z"/>
<path d="M4733 5736 c-13 -7 -20 -16 -16 -20 4 -4 0 -4 -8 -1 -9 3 -22 -1 -29
-10 -7 -8 -18 -15 -25 -15 -8 0 -15 -3 -17 -7 -1 -5 -25 -19 -51 -33 -78 -40
-87 -46 -80 -54 4 -4 -1 -4 -12 0 -14 6 -17 4 -13 -8 4 -8 2 -21 -4 -29 -8
-11 -9 -10 -4 4 3 10 0 17 -7 17 -19 -1 -88 -46 -80 -53 3 -4 -1 -7 -10 -7 -9
0 -33 -9 -54 -21 -120 -66 -146 -83 -134 -87 7 -2 16 -1 20 4 3 5 15 16 26 24
18 14 19 14 7 -1 -7 -9 -11 -23 -9 -30 2 -8 2 -11 0 -6 -3 4 -9 7 -15 7 -6 0
-6 -6 2 -15 10 -12 10 -15 0 -15 -8 0 -10 -3 -7 -7 4 -3 16 2 27 12 16 15 20
15 20 3 0 -17 -31 -48 -48 -48 -6 0 -9 6 -6 14 3 8 -2 16 -13 19 -16 4 -16 5
0 6 24 1 22 17 -4 24 -26 7 -122 -40 -113 -55 4 -7 2 -8 -4 -4 -12 7 -152 -71
-152 -85 0 -4 4 -10 9 -13 4 -3 14 -26 21 -52 12 -43 14 -45 28 -28 13 18 14
17 7 -6 -4 -14 -8 -27 -9 -30 -1 -5 11 -36 37 -102 6 -15 15 -24 19 -22 4 3 8
-6 8 -20 0 -26 29 -99 43 -104 4 -2 4 -8 1 -13 -3 -6 -1 -15 4 -22 5 -7 12
-24 16 -39 3 -16 11 -28 16 -28 5 0 6 -7 3 -17 -5 -12 -3 -14 7 -8 10 6 12 4
7 -8 -3 -9 0 -29 8 -44 14 -27 16 -27 19 0 1 11 8 13 37 9 5 -1 -3 -13 -18
-27 -15 -13 -22 -25 -15 -25 7 0 11 -4 8 -9 -4 -5 21 7 55 27 34 20 64 42 66
49 3 7 15 13 27 13 19 1 19 3 -9 25 -16 13 -27 27 -23 30 3 3 13 -1 22 -10 9
-9 16 -12 16 -6 0 6 8 11 17 11 15 0 15 -1 -1 -13 -17 -13 -18 -14 -2 -20 11
-5 15 -3 10 5 -5 8 -2 9 10 5 10 -4 15 -3 11 3 -3 6 2 10 13 10 25 0 34 10 21
26 -10 12 -2 64 10 64 3 0 17 -9 31 -20 l25 -20 -29 2 c-31 3 -47 -16 -22 -25
11 -4 13 -1 9 11 -6 14 -4 15 9 4 13 -11 19 -9 36 13 20 25 40 35 26 14 -5 -8
-2 -9 11 -1 10 5 20 17 21 26 1 9 -2 14 -7 10 -5 -3 -6 -10 -3 -16 4 -6 1 -8
-7 -6 -8 3 -13 10 -12 15 1 5 -4 10 -12 10 -7 0 -11 -6 -8 -13 6 -17 -10 -25
-27 -12 -12 8 -12 9 3 4 10 -3 16 -2 12 3 -3 5 -21 8 -40 7 -34 -3 -35 -2 -35
30 0 32 2 34 35 34 19 0 35 4 35 8 0 5 -12 9 -27 9 -16 0 -40 1 -55 2 l-28 1
0 80 0 80 60 0 59 0 3 78 3 77 78 3 77 3 0 29 c0 27 3 30 30 30 29 0 30 1 30
50 0 43 3 50 20 50 17 0 20 7 20 40 0 22 -5 40 -10 40 -7 0 -10 30 -9 80 1 66
4 80 18 81 12 0 12 3 -4 10 -17 8 -16 9 8 6 31 -5 34 0 10 19 -17 13 -17 13 0
14 9 0 17 5 17 10 0 12 -9 11 -37 -4z m-98 -96 c3 -6 -1 -7 -9 -4 -18 7 -21
14 -7 14 6 0 13 -4 16 -10z m-70 -19 c-3 -5 3 -12 12 -14 14 -4 13 -5 -4 -6
-14 -1 -23 5 -23 14 0 8 5 15 11 15 5 0 8 -4 4 -9z m-100 -82 c11 -17 0 -20
-21 -4 -17 13 -17 14 -2 15 9 0 20 -5 23 -11z m-36 -13 c16 -20 -14 -45 -32
-26 -9 10 -9 14 1 17 6 3 10 9 6 14 -8 14 12 10 25 -5z m-56 -35 c-2 -10 2
-25 11 -34 14 -14 12 -15 -25 -11 -22 2 -45 6 -50 9 -5 4 -9 1 -9 -4 0 -6 -7
-11 -15 -11 -27 0 -16 15 33 42 58 32 61 33 55 9z m-206 -116 c0 -8 -4 -15 -9
-15 -10 0 -11 14 -1 23 9 10 10 9 10 -8z m-117 -65 c8 -5 11 -10 5 -10 -5 0
-17 5 -25 10 -8 5 -10 10 -5 10 6 0 17 -5 25 -10z m-75 -30 c-3 -5 -12 -10
-18 -10 -7 0 -6 4 3 10 19 12 23 12 15 0z m390 -354 c11 -10 12 -24 6 -57 l-9
-44 -1 48 c-1 40 -4 47 -21 47 -11 0 -20 5 -20 10 0 15 29 12 45 -4z m-248
-78 c-3 -8 -6 -5 -6 6 -1 11 2 17 5 13 3 -3 4 -12 1 -19z m283 1 c0 -5 -4 -9
-10 -9 -5 0 -10 7 -10 16 0 8 5 12 10 9 6 -3 10 -10 10 -16z m9 -56 c2 -2 -3
-3 -11 -3 -9 0 -19 7 -22 16 -6 15 -4 15 11 3 10 -7 20 -15 22 -16z m-129 -42
c0 -5 -7 -14 -15 -21 -8 -7 -12 -17 -8 -23 3 -6 1 -7 -5 -3 -8 5 -8 13 0 31
11 24 28 34 28 16z m-70 -75 c0 -2 -7 -7 -16 -10 -8 -3 -12 -2 -9 4 6 10 25
14 25 6z"/>
<path d="M4325 5470 c-18 -8 -17 -9 8 -9 15 -1 27 4 27 9 0 12 -8 12 -35 0z"/>
<path d="M3960 5736 c0 -2 8 -10 18 -17 15 -13 16 -12 3 4 -13 16 -21 21 -21
13z"/>
<path d="M4010 5731 c0 -6 4 -13 10 -16 6 -3 7 1 4 9 -7 18 -14 21 -14 7z"/>
<path d="M3710 5720 c8 -5 20 -10 25 -10 6 0 3 5 -5 10 -8 5 -19 10 -25 10 -5
0 -3 -5 5 -10z"/>
<path d="M3650 5701 c-33 -18 -34 -19 -8 -18 14 1 24 6 20 11 -3 5 1 7 10 4 9
-4 15 0 15 8 0 8 -1 14 -1 14 -1 -1 -17 -9 -36 -19z"/>
<path d="M4955 5710 c3 -5 8 -10 11 -10 2 0 4 5 4 10 0 6 -5 10 -11 10 -5 0
-7 -4 -4 -10z"/>
<path d="M4888 5683 c7 -3 16 -2 19 1 4 3 -2 6 -13 5 -11 0 -14 -3 -6 -6z"/>
<path d="M4973 5655 c0 -22 2 -30 4 -17 2 12 2 30 0 40 -3 9 -5 -1 -4 -23z"/>
<path d="M4054 5669 c-3 -6 -2 -15 4 -21 6 -6 12 -6 17 3 6 8 4 10 -5 4 -10
-6 -12 -4 -7 8 7 19 2 23 -9 6z"/>
<path d="M4780 5676 c0 -2 7 -7 16 -10 8 -3 12 -2 9 4 -6 10 -25 14 -25 6z"/>
<path d="M3577 5659 c-9 -6 -17 -15 -17 -20 0 -6 4 -8 9 -5 5 4 11 3 14 -1 2
-5 2 -3 1 4 -2 6 2 14 9 16 7 2 10 7 7 10 -3 3 -13 1 -23 -4z"/>
<path d="M4985 5610 c-3 -5 -1 -10 4 -10 6 0 11 5 11 10 0 6 -2 10 -4 10 -3 0
-8 -4 -11 -10z"/>
<path d="M1490 5591 c0 -6 4 -13 10 -16 6 -3 7 1 4 9 -7 18 -14 21 -14 7z"/>
<path d="M5014 5522 c-15 -9 2 -56 16 -47 8 5 7 11 0 20 -7 8 -9 19 -5 25 7
12 4 13 -11 2z"/>
<path d="M4971 5504 c0 -11 3 -14 6 -6 3 7 2 16 -1 19 -3 4 -6 -2 -5 -13z"/>
<path d="M1570 5461 c0 -6 4 -13 10 -16 6 -3 7 1 4 9 -7 18 -14 21 -14 7z"/>
<path d="M5030 5450 c-10 -6 -11 -10 -2 -10 6 0 12 -6 12 -13 0 -7 7 -22 16
-33 8 -10 12 -13 8 -5 -4 8 -10 27 -13 42 -5 22 -9 26 -21 19z"/>
<path d="M3759 5413 c-13 -17 -13 -17 6 -3 11 8 22 16 24 17 2 2 0 3 -6 3 -6
0 -17 -8 -24 -17z"/>
<path d="M8264 5368 c-10 -16 -6 -79 7 -94 6 -7 6 -15 1 -18 -5 -3 -15 15 -22
39 -7 25 -18 45 -24 45 -6 0 -30 -13 -52 -28 l-41 -28 19 -24 c15 -19 19 -35
15 -68 -2 -23 -1 -45 4 -48 5 -3 9 24 9 60 0 40 -4 66 -12 68 -13 5 -2 28 13
28 6 0 8 -3 6 -7 -3 -5 6 -9 19 -9 l24 -2 -23 19 c-25 21 -12 26 15 5 22 -16
38 -58 38 -99 1 -29 2 -30 12 -12 6 11 13 57 14 102 2 78 -5 100 -22 71z m13
-55 c-3 -10 -5 -2 -5 17 0 19 2 27 5 18 2 -10 2 -26 0 -35z"/>
<path d="M3670 5326 c0 -10 50 -133 109 -267 11 -26 23 -59 27 -73 3 -14 10
-26 15 -26 5 0 3 15 -4 33 -8 17 -40 97 -72 177 -53 131 -75 178 -75 156z"/>
<path d="M5065 5299 c-8 -12 0 -22 20 -25 8 -1 13 2 9 7 -3 5 -10 6 -16 3 -7
-5 -9 -1 -5 9 7 19 2 23 -8 6z"/>
<path d="M8100 5250 c0 -5 4 -10 9 -10 6 0 13 5 16 10 3 6 -1 10 -9 10 -9 0
-16 -4 -16 -10z"/>
<path d="M8056 5231 c-3 -5 6 -8 20 -8 19 0 22 2 13 8 -18 11 -26 11 -33 0z"/>
<path d="M5100 5219 c0 -5 5 -7 10 -4 6 3 10 8 10 11 0 2 -4 4 -10 4 -5 0 -10
-5 -10 -11z"/>
<path d="M8237 5218 c-2 -7 -1 -22 4 -33 6 -16 8 -14 8 13 1 33 -4 41 -12 20z"/>
<path d="M8281 5188 c-7 -25 -11 -52 -8 -60 3 -8 6 -5 6 8 1 11 6 25 12 31 6
6 9 23 7 39 -3 26 -4 25 -17 -18z"/>
<path d="M5070 5204 c0 -13 -7 -15 -32 -10 -23 4 -28 3 -18 -4 13 -8 12 -11
-5 -24 -29 -22 -12 -19 29 5 20 12 36 27 36 35 0 8 -2 14 -5 14 -3 0 -5 -7 -5
-16z"/>
<path d="M4800 5165 c0 -19 5 -35 10 -35 6 0 10 16 10 35 0 19 -4 35 -10 35
-5 0 -10 -16 -10 -35z"/>
<path d="M4977 5189 c7 -7 15 -10 18 -7 3 3 -2 9 -12 12 -14 6 -15 5 -6 -5z"/>
<path d="M7968 5174 c-34 -18 -35 -30 -5 -44 21 -11 22 -11 2 5 -17 14 -18 17
-5 25 8 5 21 10 28 10 6 0 12 5 12 10 0 12 1 12 -32 -6z"/>
<path d="M4967 5169 c7 -7 15 -10 18 -7 3 3 -2 9 -12 12 -14 6 -15 5 -6 -5z"/>
<path d="M8252 5130 c0 -19 2 -27 5 -17 2 9 2 25 0 35 -3 9 -5 1 -5 -18z"/>
<path d="M2430 5140 c-9 -6 -10 -10 -3 -10 6 0 15 5 18 10 8 12 4 12 -15 0z"/>
<path d="M4963 5135 c0 -8 4 -12 9 -9 5 3 6 10 3 15 -9 13 -12 11 -12 -6z"/>
<path d="M7902 5131 c-11 -7 -10 -9 3 -14 9 -4 14 -3 10 2 -3 5 1 12 7 14 7 3
9 6 3 6 -5 0 -16 -3 -23 -8z"/>
<path d="M8295 5118 c-3 -13 -1 -36 4 -53 7 -26 8 -23 7 22 -1 59 -3 64 -11
31z"/>
<path d="M4699 5098 c-1 -13 -1 -26 0 -30 0 -5 -6 -9 -14 -9 -32 -3 -36 -4
-45 -19 -13 -21 -13 -53 1 -45 6 4 8 13 5 21 -3 7 3 18 13 24 16 8 18 7 13
-13 -3 -12 -9 -25 -15 -28 -5 -4 -10 -18 -10 -33 -2 -19 -6 -24 -19 -20 -9 2
-19 0 -23 -6 -3 -5 -13 -10 -21 -10 -14 0 -13 2 0 16 20 19 20 25 1 18 -8 -4
-16 -11 -16 -18 -2 -20 -5 -31 -13 -49 -5 -10 -5 -21 -2 -24 4 -4 9 3 13 16 3
13 11 20 19 17 8 -3 13 0 11 6 -1 6 4 13 12 16 9 3 11 0 6 -9 -10 -16 65 29
82 49 6 7 16 11 22 8 5 -4 16 2 23 12 7 10 22 24 33 31 l20 12 -20 -5 c-11 -3
-27 -1 -35 5 -12 8 -12 10 5 8 37 -3 45 1 45 20 0 11 6 21 13 24 9 3 9 7 -2
20 -9 11 -29 17 -57 17 -39 0 -44 -3 -45 -22z m61 -2 c0 -3 -11 -17 -25 -32
l-26 -28 23 -14 c16 -9 17 -12 4 -7 -15 4 -17 3 -7 -9 8 -10 9 -16 1 -21 -5
-3 -10 -1 -10 5 0 8 -6 8 -21 0 -25 -14 -40 -3 -18 13 9 7 14 18 11 25 -2 8 8
27 24 43 25 26 44 37 44 25z m-85 -136 c-3 -5 -11 -10 -16 -10 -6 0 -7 5 -4
10 3 6 11 10 16 10 6 0 7 -4 4 -10z"/>
<path d="M4808 5108 c5 -5 19 -5 33 1 22 8 22 9 -9 9 -19 -1 -29 -5 -24 -10z"/>
<path d="M7861 5096 c-10 -12 -9 -14 5 -12 10 2 20 8 22 14 5 17 -13 15 -27
-2z"/>
<path d="M4835 5090 c-3 -5 -2 -10 4 -10 5 0 13 5 16 10 3 6 2 10 -4 10 -5 0
-13 -4 -16 -10z"/>
<path d="M4846 5064 c-26 -19 -44 -34 -39 -34 6 0 28 13 49 28 22 16 46 31 54
35 13 5 13 5 0 6 -8 0 -37 -16 -64 -35z"/>
<path d="M8272 5065 c0 -16 2 -22 5 -12 2 9 2 23 0 30 -3 6 -5 -1 -5 -18z"/>
<path d="M7745 5020 c-3 -5 -1 -10 4 -10 6 0 11 5 11 10 0 6 -2 10 -4 10 -3 0
-8 -4 -11 -10z"/>
<path d="M7705 5000 c-8 -13 3 -30 18 -30 7 0 6 4 -3 10 -13 9 -13 11 0 20 9
6 10 10 3 10 -6 0 -15 -4 -18 -10z"/>
<path d="M8254 4961 c3 -5 -8 -11 -24 -15 -17 -3 -30 -10 -30 -16 0 -7 6 -7
18 -1 9 6 30 12 45 16 28 6 29 25 1 25 -8 0 -13 -4 -10 -9z"/>
<path d="M8170 4946 c7 -7 13 -7 20 0 6 6 3 10 -10 10 -13 0 -16 -4 -10 -10z"/>
<path d="M3836 4925 c3 -16 14 -47 24 -70 10 -22 35 -80 55 -130 20 -49 45
-109 56 -132 10 -24 31 -73 45 -110 15 -38 31 -72 36 -78 11 -12 -3 25 -117
300 -106 257 -107 259 -99 220z"/>
<path d="M8221 4916 c-14 -8 -32 -11 -40 -8 -12 4 -13 2 -5 -7 9 -10 18 -9 43
3 17 9 31 19 31 21 0 7 -1 6 -29 -9z"/>
<path d="M8115 4869 c-4 -6 -12 -8 -19 -6 -7 3 -12 -7 -12 -27 -1 -17 1 -25 3
-18 3 6 10 9 16 5 7 -4 5 2 -3 12 -14 17 -13 18 5 11 11 -4 16 -4 12 0 -4 4
-2 13 4 21 6 7 9 13 6 13 -3 0 -9 -5 -12 -11z"/>
<path d="M7722 4850 c0 -14 2 -19 5 -12 2 6 2 18 0 25 -3 6 -5 1 -5 -13z"/>
<path d="M7741 4794 c0 -11 3 -14 6 -6 3 7 2 16 -1 19 -3 4 -6 -2 -5 -13z"/>
<path d="M8006 4792 c-2 -4 4 -8 14 -8 10 0 16 4 14 8 -3 4 -9 8 -14 8 -5 0
-11 -4 -14 -8z"/>
<path d="M7976 4755 c-14 -11 -22 -12 -27 -4 -3 6 -9 7 -12 3 -3 -5 0 -14 7
-19 8 -8 21 -4 45 12 19 13 28 23 20 23 -8 0 -23 -7 -33 -15z"/>
<path d="M8726 4752 c-4 -11 -17 -25 -31 -32 -13 -7 -22 -17 -19 -21 2 -4 0
-10 -6 -14 -5 -3 -10 -1 -10 5 0 6 -5 8 -11 4 -8 -4 -7 -9 2 -15 11 -6 9 -9
-7 -9 -12 0 -31 -9 -44 -20 -13 -11 -27 -20 -32 -20 -5 0 -6 -4 -3 -10 3 -5 1
-10 -4 -10 -6 0 -11 -5 -11 -10 0 -7 7 -7 20 0 11 6 18 15 15 21 -4 5 -3 9 2
10 28 2 45 11 90 43 28 20 53 44 57 54 3 9 9 23 12 30 3 6 1 12 -4 12 -6 0
-13 -8 -16 -18z"/>
<path d="M7885 4701 c-3 -5 0 -13 6 -17 8 -5 9 -3 4 6 -6 10 -4 12 9 7 10 -4
15 -3 11 3 -8 13 -22 13 -30 1z"/>
<path d="M7849 4698 c-7 -23 -4 -35 7 -35 9 0 11 4 4 12 -5 7 -7 15 -3 18 3 4
3 7 0 7 -4 0 -7 -1 -8 -2z"/>
<path d="M8545 4661 c-3 -5 -2 -12 3 -15 5 -3 9 1 9 9 0 17 -3 19 -12 6z"/>
<path d="M8462 4539 c-23 -17 -42 -35 -42 -41 0 -5 21 8 48 28 26 21 49 40 51
41 2 2 0 3 -5 3 -6 0 -29 -14 -52 -31z"/>
<path d="M8685 4500 c-21 -24 -51 -26 -71 -5 -17 17 -39 21 -29 5 3 -5 -1 -10
-11 -10 -13 0 -11 -4 7 -20 l24 -20 -27 -24 -28 -25 38 -28 c20 -15 42 -35 49
-43 9 -12 14 -11 31 10 l20 25 -24 22 c-13 12 -24 25 -24 29 0 4 3 5 6 1 3 -3
15 3 27 14 26 24 38 24 65 -1 18 -17 25 -19 42 -8 11 7 20 16 20 21 0 4 5 5
12 1 7 -4 8 -3 4 4 -4 7 -13 12 -21 12 -7 0 -15 3 -17 8 -3 7 -64 52 -71 52
-2 0 -12 -9 -22 -20z m-75 -20 c0 -5 -2 -10 -4 -10 -3 0 -8 5 -11 10 -3 6 -1
10 4 10 6 0 11 -4 11 -10z m105 -10 c3 -5 1 -10 -4 -10 -6 0 -11 5 -11 10 0 6
2 10 4 10 3 0 8 -4 11 -10z m-65 -11 c0 -5 -4 -7 -10 -4 -5 3 -10 1 -10 -4 0
-6 -4 -11 -10 -11 -5 0 -7 7 -4 15 7 17 34 21 34 4z"/>
<path d="M8374 4475 c-4 -8 -9 -13 -13 -11 -4 3 -13 1 -20 -3 -9 -6 -10 -11
-2 -15 6 -4 11 -2 11 4 0 6 4 9 9 5 6 -3 13 1 18 8 4 8 15 17 23 20 12 4 11 6
-3 6 -10 1 -20 -6 -23 -14z"/>
<path d="M8310 4430 c-9 -6 -10 -10 -3 -10 6 0 15 5 18 10 8 12 4 12 -15 0z"/>
<path d="M8275 4409 c-4 -6 -5 -12 -2 -15 2 -3 7 2 10 11 7 17 1 20 -8 4z"/>
<path d="M0 4240 l0 -40 120 0 c113 0 120 1 120 20 0 18 -7 20 -80 20 -73 0
-80 2 -80 20 0 17 -7 20 -40 20 l-40 0 0 -40z"/>
<path d="M911 4044 c13 -16 29 -19 29 -5 0 5 -9 11 -21 14 -16 4 -18 3 -8 -9z"/>
<path d="M821 3933 c8 -10 18 -21 23 -25 6 -4 4 -13 -4 -22 -11 -14 -10 -16 4
-10 21 8 20 24 -3 52 -22 26 -40 30 -20 5z"/>
<path d="M0 3871 c0 -29 2 -31 39 -31 33 0 40 -4 43 -22 l3 -23 20 21 c11 11
28 24 38 27 23 9 23 47 -2 47 -10 0 -46 3 -80 6 l-61 7 0 -32z"/>
<path d="M293 3863 c-20 -8 -15 -23 7 -23 11 0 20 7 20 15 0 15 -6 17 -27 8z"/>
<path d="M920 3786 c0 -2 7 -9 15 -16 13 -11 14 -10 9 4 -5 14 -24 23 -24 12z"/>
<path d="M7790 3701 c3 -33 8 -63 11 -66 4 -3 12 15 19 40 12 43 11 47 -8 65
-12 11 -23 20 -24 20 -2 0 -1 -27 2 -59z"/>
<path d="M320 3675 c0 -34 1 -35 40 -35 33 0 40 3 40 20 0 17 7 20 40 20 29 0
40 4 40 15 0 12 -16 15 -80 15 l-80 0 0 -35z"/>
<path d="M7580 3611 c-36 -26 -128 -92 -205 -147 -77 -54 -159 -112 -181 -129
-23 -16 -82 -59 -132 -95 -51 -36 -92 -72 -92 -80 0 -19 79 -383 85 -388 2 -3
17 6 32 18 15 12 159 117 318 232 160 116 297 215 305 222 14 10 13 30 -12
191 -31 204 -36 225 -46 225 -4 0 -36 -22 -72 -49z"/>
<path d="M1045 3605 c4 -16 8 -41 8 -55 2 -24 12 -30 25 -14 4 4 1 4 -5 0 -16
-9 -16 -1 -2 26 9 16 8 19 -2 13 -8 -6 -11 -4 -7 6 3 8 -1 24 -9 34 -13 19
-14 18 -8 -10z"/>
<path d="M1096 3532 c-3 -5 1 -9 9 -9 8 0 12 4 9 9 -3 4 -7 8 -9 8 -2 0 -6 -4
-9 -8z"/>
<path d="M1390 3474 c0 -13 18 -39 24 -34 2 3 -2 14 -10 24 -8 11 -14 16 -14
10z"/>
<path d="M1146 3450 c6 -8 13 -22 16 -30 3 -9 7 -10 11 -3 4 6 -3 19 -16 29
-12 11 -17 12 -11 4z"/>
<path d="M1261 3404 c-28 -15 -49 -29 -46 -32 3 -3 11 0 17 6 7 7 19 12 27 12
12 0 12 -2 -2 -12 -16 -12 -15 -13 9 -15 15 0 23 2 18 5 -18 14 -13 33 11 42
14 5 25 12 25 15 0 8 -2 7 -59 -21z"/>
<path d="M1545 3270 c-3 -6 1 -7 9 -4 18 7 21 14 7 14 -6 0 -13 -4 -16 -10z"/>
<path d="M1470 3250 c0 -5 5 -10 10 -10 6 0 10 5 10 10 0 6 -4 10 -10 10 -5 0
-10 -4 -10 -10z"/>
<path d="M1517 3214 c-8 -8 10 -44 22 -44 12 0 8 27 -5 40 -6 6 -13 7 -17 4z"/>
<path d="M2099 3153 c-13 -16 -12 -17 4 -4 16 13 21 21 13 21 -2 0 -10 -8 -17
-17z"/>
<path d="M2036 3078 c3 -4 9 -8 15 -8 5 0 9 4 9 8 0 5 -7 9 -15 9 -8 0 -12 -4
-9 -9z"/>
<path d="M1939 3053 c-12 -16 -12 -17 2 -6 9 7 19 10 23 6 14 -14 35 -11 29 4
-5 12 -7 12 -14 1 -7 -10 -9 -10 -9 0 0 17 -15 15 -31 -5z"/>
<path d="M1334 3045 c-10 -8 -14 -15 -8 -15 6 0 17 7 24 15 16 19 9 19 -16 0z"/>
<path d="M2063 3048 c1 -7 11 -26 23 -43 12 -16 28 -43 37 -60 25 -47 62 -86
73 -75 6 6 10 3 10 -9 0 -11 -4 -17 -8 -15 -4 3 -5 -2 -2 -10 3 -9 10 -13 16
-10 5 3 8 0 7 -7 -2 -8 9 -33 24 -55 l28 -42 47 32 c26 17 71 46 101 64 l54
33 -29 16 c-21 11 -53 14 -120 11 -89 -3 -90 -3 -86 20 4 20 0 22 -32 22 -30
0 -38 5 -46 25 -5 14 -7 33 -4 42 5 14 4 15 -4 4 -8 -11 -11 -11 -18 0 -4 7
-3 14 4 17 7 2 12 8 12 14 0 7 -5 6 -14 -1 -11 -9 -15 -9 -19 1 -2 7 -8 10
-12 6 -4 -4 2 -17 14 -29 21 -23 27 -39 14 -39 -18 1 -49 56 -52 93 -1 4 -5 7
-11 7 -5 0 -9 -6 -7 -12z m90 -109 c4 -16 3 -18 -9 -8 -7 6 -11 15 -8 20 8 13
11 11 17 -12z m277 -79 c13 -9 13 -11 0 -20 -8 -5 -19 -10 -25 -10 -5 0 -3 5
5 10 13 9 13 11 0 20 -8 5 -10 10 -5 10 6 0 17 -5 25 -10z m-160 -72 c0 7 5
10 11 6 8 -5 8 -9 -1 -14 -8 -5 -9 -13 -4 -21 6 -12 5 -12 -9 0 -9 7 -17 21
-17 30 0 14 2 14 10 1 7 -11 10 -11 10 -2z"/>
<path d="M1226 3042 c-3 -6 0 -22 7 -36 13 -24 15 -24 33 -10 16 13 16 15 2
10 -11 -3 -15 -1 -12 8 6 16 -22 41 -30 28z"/>
<path d="M1204 2965 c-10 -8 -14 -15 -8 -15 6 0 17 7 24 15 16 19 9 19 -16 0z"/>
<path d="M2590 2940 c-8 -5 -12 -11 -10 -14 3 -2 14 2 24 10 22 15 10 19 -14
4z"/>
<path d="M2515 2900 c-3 -5 -2 -10 4 -10 5 0 13 5 16 10 3 6 2 10 -4 10 -5 0
-13 -4 -16 -10z"/>
<path d="M2465 2684 c-187 -118 -366 -231 -397 -250 l-57 -36 48 -72 c26 -39
82 -124 125 -189 50 -76 82 -115 89 -110 29 17 705 457 728 474 l27 19 -76
132 c-41 73 -79 135 -83 138 -4 3 -10 17 -14 31 -3 14 -16 37 -28 51 l-22 26
-340 -214z"/>
<path d="M2485 2870 c-3 -6 1 -7 9 -4 18 7 21 14 7 14 -6 0 -13 -4 -16 -10z"/>
<path d="M3100 2710 c6 -11 13 -20 16 -20 2 0 0 9 -6 20 -6 11 -13 20 -16 20
-2 0 0 -9 6 -20z"/>
<path d="M3386 2712 c-3 -5 1 -9 9 -9 8 0 12 4 9 9 -3 4 -7 8 -9 8 -2 0 -6 -4
-9 -8z"/>
<path d="M3379 2673 c-13 -16 -12 -17 4 -4 16 13 21 21 13 21 -2 0 -10 -8 -17
-17z"/>
<path d="M3132 2658 c7 -12 19 -28 26 -36 6 -7 12 -19 12 -25 0 -7 5 -4 11 6
11 19 3 41 -12 32 -5 -4 -9 1 -9 9 0 8 -9 20 -20 26 -20 10 -20 10 -8 -12z"/>
<path d="M5216 2655 c-11 -8 -33 -15 -48 -15 -16 0 -37 -6 -48 -12 -17 -11
-22 -10 -29 0 -4 7 -8 -11 -9 -43 l-1 -56 47 33 c90 62 142 107 122 107 -8 0
-24 -6 -34 -14z"/>
<path d="M3300 2636 c0 -2 8 -10 18 -17 15 -13 16 -12 3 4 -13 16 -21 21 -21
13z"/>
<path d="M3410 2610 c-14 -11 -20 -20 -14 -20 6 0 19 9 29 20 23 25 17 25 -15
0z"/>
<path d="M3295 2599 c-10 -15 3 -25 16 -12 7 7 7 13 1 17 -6 3 -14 1 -17 -5z"/>
<path d="M3186 2585 c-9 -26 -7 -32 5 -12 6 10 9 21 6 23 -2 3 -7 -2 -11 -11z"/>
<path d="M3423 2586 c-9 -11 -9 -15 0 -19 7 -3 14 3 14 14 2 22 2 22 -14 5z"/>
<path d="M3280 2563 c0 -5 -19 -9 -42 -9 -32 1 -43 -3 -43 -14 0 -8 6 -14 13
-12 22 4 13 -17 -19 -45 -17 -16 -34 -28 -37 -28 -20 -2 -160 -102 -157 -112
2 -7 -63 -55 -148 -109 -84 -53 -157 -102 -163 -108 -9 -8 1 -31 41 -89 l53
-79 25 29 c226 260 343 403 339 415 -1 5 1 7 6 4 8 -5 77 70 70 76 -2 2 15 20
37 40 22 20 37 40 32 44 -4 4 -7 3 -7 -3z m-36 -21 c3 -5 -1 -9 -9 -9 -8 0
-12 4 -9 9 3 4 7 8 9 8 2 0 6 -4 9 -8z m-55 -86 c-17 -19 -38 -32 -45 -29 -17
6 -19 16 -2 11 7 -3 25 8 40 24 39 40 46 35 7 -6z m-88 -99 c-10 -9 -11 -8 -5
6 3 10 9 15 12 12 3 -3 0 -11 -7 -18z m-36 -5 c-3 -3 -11 0 -18 7 -9 10 -8 11
6 5 10 -3 15 -9 12 -12z m-12 -57 c-3 -9 -8 -14 -10 -11 -3 3 -2 9 2 15 9 16
15 13 8 -4z"/>
<path d="M5050 2385 c-14 -8 -20 -14 -14 -15 5 0 19 7 30 15 24 18 16 19 -16
0z"/>
<path d="M4956 2318 c3 -5 10 -6 15 -3 13 9 11 12 -6 12 -8 0 -12 -4 -9 -9z"/>
<path d="M5535 2112 c-16 -9 -38 -25 -49 -34 -11 -10 -26 -18 -33 -18 -7 0
-13 -5 -13 -11 0 -6 -9 -8 -20 -4 -24 8 -27 -10 -4 -19 10 -4 41 12 85 45 38
28 69 53 69 55 0 6 -2 5 -35 -14z"/>
<path d="M5375 2041 c-3 -5 -2 -12 3 -15 5 -3 9 1 9 9 0 17 -3 19 -12 6z"/>
<path d="M2916 1787 c3 -10 9 -15 12 -12 3 3 0 11 -7 18 -10 9 -11 8 -5 -6z"/>
<path d="M3110 1784 c0 -6 7 -19 15 -30 8 -10 14 -14 14 -9 0 6 -6 19 -14 29
-8 11 -15 15 -15 10z"/>
<path d="M3000 1760 c6 -11 13 -20 16 -20 2 0 0 9 -6 20 -6 11 -13 20 -16 20
-2 0 0 -9 6 -20z"/>
<path d="M3240 1760 c6 -11 13 -20 16 -20 2 0 0 9 -6 20 -6 11 -13 20 -16 20
-2 0 0 -9 6 -20z"/>
<path d="M3040 1734 c0 -5 7 -18 15 -28 8 -11 15 -16 15 -10 0 5 -7 18 -15 28
-8 11 -15 16 -15 10z"/>
<path d="M2931 1713 c7 -12 15 -20 18 -17 3 2 -3 12 -13 22 -17 16 -18 16 -5
-5z"/>
<path d="M3259 1703 c12 -24 31 -39 31 -25 0 5 -10 17 -21 28 -22 19 -22 19
-10 -3z"/>
<path d="M3125 1686 c10 -14 19 -26 22 -26 7 0 -17 39 -28 46 -6 3 -3 -5 6
-20z"/>
<path d="M2850 1683 c0 -6 8 -17 18 -24 16 -13 16 -13 2 6 -8 11 -16 22 -17
24 -2 2 -3 0 -3 -6z"/>
<path d="M2970 1676 c0 -2 8 -10 18 -17 15 -13 16 -12 3 4 -13 16 -21 21 -21
13z"/>
<path d="M2706 1647 c3 -10 9 -15 12 -12 3 3 0 11 -7 18 -10 9 -11 8 -5 -6z"/>
<path d="M2790 1620 c6 -11 13 -20 16 -20 2 0 0 9 -6 20 -6 11 -13 20 -16 20
-2 0 0 -9 6 -20z"/>
<path d="M2900 1633 c0 -6 8 -17 18 -24 16 -13 16 -13 2 6 -8 11 -16 22 -17
24 -2 2 -3 0 -3 -6z"/>
<path d="M2980 1604 c0 -6 7 -19 15 -30 8 -10 14 -14 14 -9 0 6 -6 19 -14 29
-8 11 -15 15 -15 10z"/>
<path d="M2830 1581 c5 -11 15 -23 21 -27 6 -3 3 5 -6 20 -20 30 -30 35 -15 7z"/>
<path d="M2720 1570 c6 -11 13 -20 16 -20 2 0 0 9 -6 20 -6 11 -13 20 -16 20
-2 0 0 -9 6 -20z"/>
<path d="M2910 1551 c5 -11 15 -23 21 -27 6 -3 3 5 -6 20 -20 30 -30 35 -15 7z"/>
<path d="M2759 1532 c6 -12 16 -24 22 -28 8 -4 8 -1 0 14 -6 12 -16 24 -22 28
-8 4 -8 1 0 -14z"/>
<path d="M2650 1520 c6 -11 13 -20 16 -20 2 0 0 9 -6 20 -6 11 -13 20 -16 20
-2 0 0 -9 6 -20z"/>
<path d="M2840 1501 c5 -11 15 -23 21 -27 6 -3 3 5 -6 20 -20 30 -30 35 -15 7z"/>
<path d="M2570 1491 c5 -11 15 -23 21 -27 6 -3 3 5 -6 20 -20 30 -30 35 -15 7z"/>
<path d="M2696 1475 c9 -14 18 -25 20 -25 2 0 -2 11 -8 25 -6 14 -15 25 -20
25 -5 0 -1 -11 8 -25z"/>
<path d="M2770 1451 c5 -11 15 -23 21 -27 6 -3 3 5 -6 20 -20 30 -30 35 -15 7z"/>
<path d="M2491 1455 c0 -5 6 -19 14 -29 8 -11 15 -15 15 -10 0 6 -7 19 -15 30
-8 10 -14 15 -14 9z"/>
<path d="M2610 1454 c0 -5 7 -18 15 -28 8 -11 15 -16 15 -10 0 5 -7 18 -15 28
-8 11 -15 16 -15 10z"/>
<path d="M2690 1423 c0 -6 9 -21 21 -34 l20 -24 -17 30 c-24 39 -24 40 -24 28z"/>
<path d="M2420 1404 c0 -5 7 -18 15 -28 8 -11 15 -16 15 -10 0 5 -7 18 -15 28
-8 11 -15 16 -15 10z"/>
<path d="M2550 1382 c6 -13 14 -21 18 -18 3 4 -2 14 -12 24 -18 16 -18 16 -6
-6z"/>
<path d="M2621 1370 c0 -8 6 -24 14 -34 19 -25 19 -9 0 24 -8 14 -14 19 -14
10z"/>
<path d="M2350 1354 c0 -5 7 -19 15 -30 8 -10 15 -14 15 -8 0 5 -7 19 -15 30
-8 10 -15 14 -15 8z"/>
<path d="M2476 1335 c9 -14 19 -24 21 -21 6 6 -20 46 -30 46 -4 0 0 -11 9 -25z"/>
<path d="M2549 1312 c6 -12 16 -24 22 -28 8 -4 8 -1 0 14 -6 12 -16 24 -22 28
-8 4 -8 1 0 -14z"/>
<path d="M2270 1315 c0 -5 9 -21 20 -35 11 -14 20 -20 20 -15 0 6 -9 21 -20
35 -11 14 -20 21 -20 15z"/>
<path d="M2406 1280 c10 -16 19 -28 21 -26 6 6 -20 56 -29 56 -5 0 -1 -13 8
-30z"/>
<path d="M2485 1253 c15 -32 25 -42 25 -24 0 5 -9 19 -20 32 l-21 24 16 -32z"/>
<path d="M2320 1268 c0 -15 24 -58 32 -58 8 0 1 17 -22 50 -5 8 -10 12 -10 8z"/>
<path d="M2200 1240 c0 -5 7 -7 15 -4 8 4 15 8 15 10 0 2 -7 4 -15 4 -8 0 -15
-4 -15 -10z"/>
<path d="M2254 1196 c-10 -8 -16 -17 -13 -20 3 -3 14 3 24 14 21 23 17 26 -11
6z"/>
<path d="M2270 1125 c-17 -10 -20 -14 -9 -15 9 0 22 7 29 15 15 18 12 18 -20
0z"/>
<path d="M2305 1059 c-11 -17 1 -21 15 -4 8 9 8 15 2 15 -6 0 -14 -5 -17 -11z"/>
</g>
</svg>
