<?xml version="1.0" standalone="no"?>
<!DOCTYPE svg PUBLIC "-//W3C//DTD SVG 20010904//EN"
 "http://www.w3.org/TR/2001/REC-SVG-20010904/DTD/svg10.dtd">
<svg version="1.0" xmlns="http://www.w3.org/2000/svg"
 width="626.000000pt" height="626.000000pt" viewBox="0 0 626.000000 626.000000"
 preserveAspectRatio="xMidYMid meet">

<g transform="translate(0.000000,626.000000) scale(0.100000,-0.100000)"
fill="#000000" stroke="none">
<path d="M0 3130 l0 -3130 120 0 120 0 0 53 c0 67 10 127 21 127 5 0 9 -40 9
-90 l0 -90 99 0 99 0 4 295 c2 218 6 297 15 307 10 10 13 -49 13 -295 l0 -307
100 0 100 0 0 428 c0 235 3 438 7 451 15 56 22 -21 22 -250 1 -130 4 -324 8
-432 l6 -197 39 0 38 0 0 479 c0 263 3 493 6 511 13 62 24 6 24 -125 l0 -130
115 -114 115 -115 0 -135 c0 -74 -2 -132 -5 -130 -2 2 -54 53 -115 114 l-110
109 0 -232 0 -232 150 0 150 0 0 548 c0 551 6 746 21 736 5 -3 9 -293 9 -645
l0 -639 45 0 45 0 0 523 c0 543 7 807 22 807 4 0 8 -30 8 -67 l0 -67 92 -93
c51 -51 96 -93 101 -93 4 0 8 93 8 207 0 115 0 216 0 225 0 10 6 21 12 24 7 4
9 4 5 0 -3 -4 -2 -22 3 -39 5 -18 9 -225 9 -467 0 -365 2 -439 14 -455 12 -17
16 -17 20 -5 3 8 7 164 9 345 l2 330 3 -352 2 -353 70 -71 70 -72 0 179 c1
344 11 919 17 974 l7 55 7 -75 c4 -41 8 -387 8 -768 1 -609 3 -692 16 -692 13
0 15 64 15 520 0 409 -3 520 -12 520 -10 0 -10 2 -1 8 9 5 13 52 16 152 1 80
4 -20 5 -221 l2 -366 108 -104 c147 -143 191 -181 202 -174 6 4 7 -2 3 -12 -6
-17 -5 -17 15 1 21 18 21 18 17 -3 -2 -12 0 -19 6 -16 5 4 7 10 4 15 -3 5 -1
11 5 15 5 3 10 21 10 38 0 21 3 28 9 19 10 -17 21 57 21 147 -1 43 -6 73 -16
86 -8 11 -97 103 -197 205 -100 102 -168 174 -152 160 17 -13 110 -103 207
-200 l178 -175 0 -55 c0 -31 7 -82 15 -113 11 -42 15 -112 15 -252 l0 -195 84
0 83 0 16 42 c9 24 27 78 41 121 14 42 40 103 58 135 34 60 153 186 186 196
17 6 20 0 26 -40 3 -26 6 -111 6 -189 0 -78 3 -170 6 -204 l7 -61 323 0 324 0
1 243 c0 133 4 233 8 222 8 -19 9 -19 12 -2 4 18 5 18 28 -2 14 -12 31 -19 38
-17 16 7 79 -52 88 -81 3 -13 10 -23 15 -23 4 0 11 -12 15 -27 3 -15 10 -30
14 -33 11 -8 51 -98 51 -115 0 -8 5 -15 11 -15 5 0 8 -4 5 -9 -4 -5 -3 -11 1
-13 13 -5 43 -77 43 -103 0 -25 1 -25 85 -25 l85 0 1 163 c1 204 3 213 50 155
20 -23 48 -64 63 -90 15 -27 32 -48 36 -48 5 0 12 -10 16 -22 3 -13 20 -53 37
-91 l30 -67 218 0 219 0 1 108 c1 59 5 161 9 227 6 108 7 97 8 -107 l2 -228
355 0 355 0 1 78 c0 42 4 97 8 122 l8 45 2 -46 c0 -25 4 -80 7 -122 l7 -77
459 0 458 0 0 2899 c0 2567 -2 2900 -15 2911 -13 11 -14 10 -9 -6 5 -16 4 -16
-5 -4 -6 8 -9 22 -7 30 2 8 -16 32 -40 54 l-44 39 0 -95 c0 -95 0 -95 35 -132
19 -21 35 -43 35 -49 0 -7 -5 -4 -11 6 -6 9 -15 14 -21 11 -7 -4 -8 -2 -4 4 4
7 2 12 -4 12 -6 0 -8 4 -5 10 3 5 0 7 -9 4 -16 -6 -26 -98 -14 -139 3 -14 3
-25 -2 -25 -14 0 -30 27 -29 51 0 13 0 171 0 352 l-1 327 -95 0 -95 0 0 -247
c0 -319 -12 -1067 -16 -1072 -2 -2 -6 -2 -9 0 -2 3 -7 300 -11 662 l-7 657
-94 0 -93 0 0 -308 0 -308 50 -49 50 -49 -1 -386 c0 -212 -4 -394 -8 -405 -10
-26 -21 244 -21 536 l0 235 -34 33 -33 32 -5 -481 c-3 -346 -8 -484 -16 -492
-9 -9 -12 37 -12 193 -1 141 -4 210 -13 225 -15 27 -64 84 -71 84 -3 0 -6 -78
-6 -172 0 -228 -11 -491 -21 -481 -4 4 -9 162 -11 351 l-5 343 -51 52 -52 53
0 410 0 410 -38 37 c-21 20 -41 37 -45 37 -12 0 -8 -1219 4 -1242 8 -15 8 -19
0 -14 -8 5 -11 -77 -11 -292 0 -304 -6 -405 -21 -380 -5 7 -9 148 -9 313 l0
300 -115 115 -115 115 0 50 c0 45 -4 55 -35 85 l-35 34 -3 -440 c-2 -356 -3
-315 -5 217 l-2 657 -90 82 -90 82 0 -738 0 -739 72 -75 73 -75 -77 75 -77 75
-2 746 -1 746 -103 103 c-69 69 -103 96 -102 84 0 -11 -2 -374 -3 -809 -3
-522 -6 -725 -11 -600 -3 105 -7 454 -8 778 -1 384 -4 587 -11 587 -5 0 -10
-15 -11 -32 -1 -31 -1 -32 -9 -8 -7 23 -8 22 -10 -10 -2 -38 -18 -87 -20 -60
0 9 -6 6 -15 -10 -13 -23 -14 -14 -16 100 0 69 -3 142 -4 164 -4 43 -18 65
-30 45 -6 -8 -4 -10 6 -5 8 4 3 -1 -10 -12 -17 -13 -24 -32 -27 -63 -2 -24 -8
-45 -14 -47 -5 -2 -10 -21 -10 -42 0 -21 -4 -42 -10 -45 -6 -3 -10 -21 -10
-39 0 -20 -11 -47 -29 -72 -16 -21 -34 -58 -41 -82 -6 -24 -18 -46 -26 -49 -7
-3 -14 -11 -14 -18 0 -7 -6 -18 -14 -24 -8 -7 -18 -26 -21 -43 -5 -19 -10 -26
-15 -18 -9 15 -20 -10 -20 -46 0 -13 -4 -24 -10 -24 -7 0 -10 -266 -10 -777
l0 -777 38 -41 37 -40 -41 38 -41 38 -6 742 c-4 408 -10 755 -13 770 l-7 28
-19 -32 c-11 -17 -17 -37 -14 -44 5 -13 -12 -35 -27 -35 -5 0 -7 7 -3 15 3 8
1 15 -4 15 -5 0 -12 -9 -15 -20 -4 -11 -24 -34 -46 -52 -21 -17 -39 -39 -39
-49 0 -19 -26 -33 -43 -22 -7 4 -6 -1 2 -10 8 -11 9 -17 3 -17 -19 0 -30 33
-34 94 -2 42 -8 60 -20 67 -14 8 -19 3 -27 -23 -6 -22 -10 -26 -10 -13 -1 18
-3 17 -18 -7 -9 -15 -28 -33 -42 -40 -29 -14 -43 -25 -72 -50 -10 -10 -26 -18
-34 -18 -9 0 -28 -9 -43 -19 -36 -26 -174 -63 -205 -56 l-25 7 -7 225 c-4 134
-11 220 -16 212 -7 -11 -9 -9 -9 6 0 17 -7 20 -52 21 -92 1 -142 9 -168 27
-13 9 -34 17 -46 17 -11 0 -29 9 -39 20 -10 11 -28 20 -39 20 -12 0 -27 9 -34
20 -7 11 -18 20 -24 20 -20 0 -188 180 -195 209 -7 24 -8 23 -14 -14 -5 -22
-8 -97 -8 -166 -1 -69 -4 -214 -8 -321 -6 -182 -7 -195 -24 -191 -10 3 -17 10
-16 15 2 12 -51 46 -74 47 -9 1 -22 8 -29 16 -7 8 -21 15 -31 15 -11 0 -23 10
-28 23 -5 13 -23 34 -40 48 -17 13 -31 28 -31 32 0 4 -17 25 -37 46 -21 22
-39 45 -41 52 -2 8 -11 22 -20 31 -33 33 -44 49 -38 55 7 7 -25 63 -36 63 -4
0 -8 19 -8 43 -1 41 -1 42 -15 17 -12 -21 -14 -22 -15 -6 0 11 -2 17 -5 14 -8
-7 -14 -67 -14 -148 -1 -88 -11 -112 -35 -87 -9 8 -16 19 -16 24 0 4 -9 19
-20 33 -11 14 -20 33 -20 43 0 9 -4 17 -10 17 -5 0 -10 6 -10 14 0 8 -6 21
-13 28 -25 25 -45 63 -51 99 -4 21 -17 52 -29 70 -25 39 -39 76 -62 169 -9 36
-24 84 -33 107 l-17 43 -67 0 -68 0 -3 -1042 -2 -1043 -3 1043 -2 1042 -238 0
-239 0 -6 -602 c-4 -331 -7 -743 -8 -917 -1 -174 -4 -327 -8 -341 -14 -50 -21
294 -21 1072 l0 788 -137 0 -138 0 83 -83 82 -82 -2 -520 -3 -520 -5 516 -5
517 -82 86 c-70 73 -87 86 -115 86 l-31 0 21 -23 22 -24 0 -679 c0 -747 -4
-693 60 -752 83 -77 109 -105 105 -112 -3 -4 3 -6 13 -3 33 8 46 -44 37 -155
-4 -53 -11 -261 -15 -462 l-6 -365 -2 471 -2 470 -30 29 c-16 16 -30 35 -30
44 0 8 -3 11 -7 7 -4 -3 -28 16 -54 44 -26 27 -51 50 -57 50 -5 0 -17 11 -26
25 -19 29 -22 60 -3 49 9 -6 9 -4 1 7 -8 9 -14 135 -18 394 l-7 380 -34 35
-35 35 0 -320 c-1 -323 -3 -402 -12 -411 -10 -9 -18 134 -19 316 l0 185 -37
38 c-20 20 -40 37 -44 37 -13 0 -9 -135 5 -149 10 -11 10 -13 0 -7 -10 6 -13
-14 -13 -84 0 -55 -4 -89 -10 -85 -5 3 -7 12 -3 20 3 9 0 21 -6 29 -8 9 -12
67 -12 167 l0 153 -40 43 -39 43 -1 -45 c-1 -25 -2 -51 -3 -57 -1 -7 1 -25 5
-40 5 -18 4 -28 -3 -28 -5 0 -7 -7 -4 -16 3 -9 2 -12 -4 -9 -6 4 -9 12 -8 18
1 7 -3 22 -10 35 -11 18 -10 23 2 28 12 4 12 11 4 36 -8 23 -8 36 1 49 14 23
14 32 1 24 -10 -6 -12 110 -10 433 l1 132 -296 0 -295 0 0 -3130z m4460 3026
c0 -3 -4 -8 -10 -11 -5 -3 -10 -1 -10 4 0 6 5 11 10 11 6 0 10 -2 10 -4z
m-4333 -503 c-3 -10 -5 -4 -5 12 0 17 2 24 5 18 2 -7 2 -21 0 -30z m6108 -2
c3 -5 2 -12 -3 -15 -5 -3 -9 1 -9 9 0 17 3 19 12 6z m-98 -152 c-1 -10 -5 -19
-9 -19 -4 0 -5 -6 -2 -14 3 -8 1 -23 -4 -33 -8 -14 -10 -3 -10 44 1 50 4 61
14 52 7 -6 12 -19 11 -30z m112 -69 c0 -10 -6 -8 -19 9 -11 12 -17 27 -14 33
7 11 33 -21 33 -42z m-5629 -302 c0 -6 -7 -5 -15 2 -8 7 -15 17 -15 22 0 6 7
5 15 -2 8 -7 15 -17 15 -22z m5520 -6 c0 -13 -3 -12 -15 4 -19 25 -19 40 0 24
8 -7 15 -20 15 -28z m-5426 -78 c18 -17 22 -39 6 -29 -11 7 -33 45 -26 45 2 0
12 -7 20 -16z m5536 -26 c0 -6 -7 -5 -15 2 -8 7 -15 17 -15 22 0 6 7 5 15 -2
8 -7 15 -17 15 -22z m-5403 -109 l3 -32 -21 28 c-18 22 -19 29 -8 35 18 11 22
7 26 -31z m4581 -300 l-3 -224 -5 232 c-3 128 -2 229 3 224 4 -4 6 -108 5
-232z m-4881 39 c-3 -7 -5 -2 -5 12 0 14 2 19 5 13 2 -7 2 -19 0 -25z m5520
-5 c-3 -10 -5 -4 -5 12 0 17 2 24 5 18 2 -7 2 -21 0 -30z m-5097 -179 c0 -14
-4 -23 -10 -19 -5 3 -10 15 -10 26 0 10 5 19 10 19 6 0 10 -12 10 -26z m3355
-604 c10 -11 16 -20 13 -20 -3 0 -13 9 -23 20 -10 11 -16 20 -13 20 3 0 13 -9
23 -20z m-2984 -457 c13 -16 12 -17 -3 -4 -10 7 -18 15 -18 17 0 8 8 3 21 -13z
m236 -1155 c-3 -7 -5 -2 -5 12 0 14 2 19 5 13 2 -7 2 -19 0 -25z m-56 -105
c13 -16 12 -17 -3 -4 -17 13 -22 21 -14 21 2 0 10 -8 17 -17z m229 -223 c7
-13 7 -20 1 -20 -6 0 -15 9 -21 20 -7 13 -7 20 -1 20 6 0 15 -9 21 -20z m3677
-362 c-3 -7 -5 -2 -5 12 0 14 2 19 5 13 2 -7 2 -19 0 -25z m-4127 -208 c0 -5
-4 -10 -10 -10 -5 0 -10 5 -10 10 0 6 5 10 10 10 6 0 10 -4 10 -10z m-572 -86
c-10 -10 -28 6 -28 24 0 15 1 15 17 -1 9 -9 14 -19 11 -23z m867 -34 l20 -25
-22 19 c-13 11 -23 24 -23 29 0 6 1 8 3 6 1 -2 11 -15 22 -29z m-745 -87 c0
-13 -3 -13 -15 -3 -8 7 -15 19 -15 27 0 13 3 13 15 3 8 -7 15 -19 15 -27z
m1400 22 c0 -8 -7 -15 -15 -15 -11 0 -15 -11 -15 -40 0 -22 -4 -40 -10 -40 -5
0 -10 18 -10 40 0 29 -4 40 -15 40 -8 0 -15 7 -15 15 0 11 11 15 40 15 29 0
40 -4 40 -15z m200 5 c0 -5 -7 -10 -15 -10 -8 0 -15 -4 -15 -10 0 -5 7 -10 15
-10 8 0 15 -4 15 -10 0 -5 -7 -10 -15 -10 -8 0 -15 -4 -15 -10 0 -5 7 -10 15
-10 8 0 15 -7 15 -15 0 -9 -9 -15 -25 -15 -24 0 -25 3 -25 55 0 52 1 55 25 55
14 0 25 -4 25 -10z m228 -7 c2 -8 -6 -13 -22 -13 -21 0 -26 -5 -26 -25 0 -20
5 -25 26 -25 16 0 24 -5 22 -12 -8 -24 -51 -15 -67 13 -13 24 -13 29 3 53 18
28 55 33 64 9z m232 -33 c0 -27 -4 -50 -10 -50 -5 0 -10 9 -10 20 0 12 -7 20
-16 20 -9 0 -18 -9 -21 -20 -9 -36 -23 -21 -23 25 0 25 5 45 10 45 6 0 10 -7
10 -15 0 -22 37 -18 43 5 9 35 17 21 17 -30z m478 34 c37 -26 27 -70 -20 -87
-42 -15 -71 62 -32 90 23 16 25 16 52 -3z m202 -28 c0 -26 5 -35 22 -40 30 -7
10 -29 -23 -24 -20 2 -25 10 -27 42 -2 21 -1 45 2 53 10 24 26 4 26 -31z m260
24 c11 -11 20 -27 20 -35 0 -19 -35 -55 -54 -55 -22 0 -46 29 -46 55 0 26 24
55 46 55 8 0 23 -9 34 -20z m242 5 c-1 -5 -10 -10 -18 -10 -9 0 -22 -8 -28
-17 -8 -14 -7 -21 8 -35 17 -17 18 -17 11 5 -5 18 -2 22 14 22 16 0 21 -6 21
-24 0 -29 -30 -42 -60 -26 -26 14 -28 74 -2 89 21 13 58 10 54 -4z m204 -11
c3 9 13 16 21 16 13 0 13 -3 3 -15 -7 -8 -15 -29 -19 -46 -8 -38 -24 -39 -33
-2 -3 15 -9 39 -13 53 l-7 25 21 -24 c18 -20 22 -21 27 -7z m-1176 -16 l20
-33 0 33 c0 17 5 32 10 32 6 0 10 -20 10 -45 0 -55 -19 -60 -49 -12 l-21 32 0
-32 c0 -18 -4 -33 -10 -33 -5 0 -10 20 -10 45 0 55 21 61 50 13z m-2993 -30
c-3 -7 -5 -2 -5 12 0 14 2 19 5 13 2 -7 2 -19 0 -25z m2563 -166 c1 -13 5 -11
16 8 l15 25 -6 -30 c-8 -36 -13 -42 -24 -29 -15 15 -25 57 -12 50 6 -4 11 -15
11 -24z m750 13 c-10 -12 -10 -15 1 -16 12 0 12 -1 0 -6 -11 -5 -11 -7 0 -14
11 -7 10 -9 -3 -9 -13 0 -18 8 -18 30 0 21 5 30 16 30 14 0 14 -3 4 -15z m84
1 c-3 -8 -1 -17 5 -21 19 -11 12 -25 -11 -24 -13 0 -17 3 -10 6 10 4 10 8 2
19 -7 7 -9 18 -5 24 9 15 25 12 19 -4z m158 2 c-18 -18 -15 -38 6 -38 14 0 15
2 2 10 -13 8 -12 10 3 10 9 0 17 -7 17 -15 0 -9 -9 -15 -25 -15 -17 0 -25 5
-25 18 0 17 17 42 29 42 3 0 0 -5 -7 -12z m-1066 -9 c10 -17 -13 -36 -27 -22
-12 12 -4 33 11 33 5 0 12 -5 16 -11z m981 -26 c-3 -10 -5 -4 -5 12 0 17 2 24
5 18 2 -7 2 -21 0 -30z m196 17 c23 -27 22 -37 -2 -16 -18 17 -19 17 -24 -1
-3 -12 -5 -9 -6 10 -1 32 8 34 32 7z m97 6 c0 -8 -4 -17 -9 -21 -12 -7 -24 12
-16 25 9 15 25 12 25 -4z"/>
<path d="M3344 1146 c-9 -23 0 -51 16 -51 10 0 15 10 15 29 0 32 -21 47 -31
22z"/>
<path d="M3807 1154 c-4 -4 -7 -18 -7 -31 0 -17 6 -23 21 -23 16 0 20 5 17 27
-3 26 -18 39 -31 27z"/>
<path d="M621 6223 c1 -31 8 -44 40 -72 l39 -33 0 71 0 71 -40 0 c-40 0 -40 0
-39 -37z"/>
<path d="M813 6229 c22 -19 37 -40 37 -53 0 -12 16 -37 35 -56 l35 -34 0 65
c0 85 -22 109 -96 109 l-49 -1 38 -30z"/>
<path d="M4656 6226 c-4 -19 -14 -37 -23 -40 -12 -5 -14 -9 -5 -18 15 -15 16
-31 1 -22 -8 4 -9 -1 -4 -16 5 -16 4 -20 -5 -15 -9 5 -10 1 -5 -16 10 -30 177
-202 184 -190 3 5 5 86 3 180 l-3 171 -68 0 -69 0 -6 -34z"/>
<path d="M4820 6067 l0 -192 83 -82 c45 -46 85 -86 90 -89 4 -4 7 119 7 274
l0 282 -90 0 -90 0 0 -193z"/>
<path d="M5017 6008 c-3 -139 -6 -363 -7 -498 l-1 -245 35 -34 36 -35 0 532 0
532 -28 0 -29 0 -6 -252z"/>
<path d="M5120 5707 l0 -552 95 -95 95 -95 0 617 0 616 -26 31 c-14 17 -30 31
-35 31 -5 0 -10 -184 -11 -442 l-2 -443 -9 443 -9 442 -49 0 -49 0 0 -553z
m117 -359 c-3 -8 -6 -5 -6 6 -1 11 2 17 5 13 3 -3 4 -12 1 -19z m0 -70 c-3 -8
-6 -5 -6 6 -1 11 2 17 5 13 3 -3 4 -12 1 -19z"/>
<path d="M5340 6242 c0 -17 68 -92 83 -92 4 0 7 25 7 55 l0 55 -45 0 c-37 0
-45 -3 -45 -18z"/>
<path d="M5460 6182 c0 -76 1 -79 35 -112 l35 -34 0 112 0 112 -35 0 -35 0 0
-78z"/>
<path d="M5570 6012 l0 -248 35 -34 35 -34 0 282 0 282 -35 0 -35 0 0 -248z"/>
<path d="M6140 6229 c0 -28 53 -108 73 -109 4 0 7 32 7 70 l0 70 -40 0 c-38 0
-40 -2 -40 -31z"/>
<path d="M6249 6258 c-5 -18 -2 -178 3 -178 5 0 8 41 8 90 0 50 -2 90 -5 90
-3 0 -5 -1 -6 -2z"/>
<path d="M734 6161 c1 -77 2 -81 35 -115 19 -20 39 -36 43 -36 4 0 8 35 8 78
0 77 0 78 -38 115 -21 20 -40 37 -43 37 -3 0 -5 -36 -5 -79z"/>
<path d="M4413 6207 c0 -8 6 -14 14 -14 9 0 10 4 2 14 -6 7 -12 13 -14 13 -1
0 -2 -6 -2 -13z"/>
<path d="M620 6052 c0 -86 1 -89 33 -120 18 -18 36 -32 40 -32 4 0 7 39 7 88
0 86 -1 88 -34 120 -18 17 -36 32 -40 32 -3 0 -6 -40 -6 -88z"/>
<path d="M6140 6052 c0 -86 1 -89 33 -120 18 -18 36 -32 40 -32 4 0 7 40 7 88
0 86 -1 89 -33 120 -18 18 -36 32 -40 32 -4 0 -7 -40 -7 -88z"/>
<path d="M850 5932 l0 -198 35 -34 35 -34 0 198 c0 108 -4 205 -10 215 -5 10
-21 26 -35 35 l-25 16 0 -198z"/>
<path d="M4560 6081 c0 -6 4 -13 10 -16 6 -3 7 1 4 9 -7 18 -14 21 -14 7z"/>
<path d="M5460 5662 l0 -378 35 -34 35 -34 0 385 0 385 -28 27 c-15 15 -31 27
-35 27 -4 0 -7 -170 -7 -378z"/>
<path d="M6239 5993 c-1 -21 -3 -48 -4 -59 -1 -12 4 -34 11 -50 11 -26 12 -21
13 59 1 52 -3 87 -9 87 -5 0 -11 -17 -11 -37z"/>
<path d="M732 5940 c-2 -79 -2 -80 34 -120 20 -22 40 -40 45 -40 5 0 9 38 9
83 0 83 0 84 -37 120 -20 21 -39 37 -42 37 -3 0 -7 -36 -9 -80z"/>
<path d="M620 5829 c0 -83 3 -98 20 -114 11 -10 17 -22 13 -28 -3 -5 -1 -7 5
-3 6 3 13 2 17 -4 17 -27 25 -2 25 78 l0 88 -40 39 -40 39 0 -95z"/>
<path d="M730 5724 c0 -41 5 -85 11 -97 14 -27 60 -77 71 -77 4 0 8 40 8 89
l0 89 -40 36 c-22 20 -42 36 -45 36 -3 0 -5 -34 -5 -76z"/>
<path d="M5570 5444 l0 -270 33 -32 c18 -18 37 -32 41 -32 5 0 6 120 4 266
l-5 266 -36 36 -37 37 0 -271z"/>
<path d="M5120 5110 c0 -18 27 -52 90 -117 50 -51 92 -93 95 -93 3 0 5 10 5
23 0 15 -31 53 -95 117 -82 82 -95 91 -95 70z"/>
<path d="M1030 4756 c0 -2 8 -10 18 -17 15 -13 16 -12 3 4 -13 16 -21 21 -21
13z"/>
<path d="M1303 648 c4 -271 7 -528 7 -570 l0 -78 90 0 90 0 0 36 c0 30 -9 46
-60 98 l-60 63 2 314 3 314 2 -310 3 -310 53 -53 52 -53 5 38 c3 21 7 214 8
428 l3 390 -94 93 c-52 50 -98 92 -102 92 -5 0 -5 -222 -2 -492z m74 190 c-3
-8 -6 -5 -6 6 -1 11 2 17 5 13 3 -3 4 -12 1 -19z"/>
<path d="M850 604 l0 -89 95 -95 95 -95 0 90 0 90 -95 95 -95 94 0 -90z"/>
<path d="M1800 295 l0 -295 103 0 104 0 1 27 c0 16 7 44 15 63 9 19 15 38 16
43 0 4 7 20 15 36 9 16 12 32 8 35 -3 4 2 4 13 0 14 -6 17 -4 13 8 -4 9 -2 20
4 26 28 28 11 49 -270 338 -7 8 -15 14 -18 14 -2 0 -4 -133 -4 -295z"/>
<path d="M1538 248 c7 -328 23 -240 24 127 0 61 -1 65 -15 65 -10 0 -12 -40
-9 -192z"/>
<path d="M1581 215 c1 -104 4 -195 6 -202 4 -9 26 -13 69 -13 l64 0 0 138 c0
131 -1 138 -22 156 -13 10 -45 39 -71 65 l-48 46 2 -190z"/>
</g>
</svg>
